<?xml version="1.0" encoding="UTF-8" standalone="no"?>
<!-- Created with Inkscape (http://www.inkscape.org/) -->

<svg
   xmlns:dc="http://purl.org/dc/elements/1.1/"
   xmlns:cc="http://creativecommons.org/ns#"
   xmlns:rdf="http://www.w3.org/1999/02/22-rdf-syntax-ns#"
   xmlns:svg="http://www.w3.org/2000/svg"
   xmlns="http://www.w3.org/2000/svg"
   version="1.1"
   width="715.74799"
   height="385.86612"
   id="svg3158">
  <defs
     id="defs3160" />
  <metadata
     id="metadata3163">
    <rdf:RDF>
      <cc:Work
         rdf:about="">
        <dc:format>image/svg+xml</dc:format>
        <dc:type
           rdf:resource="http://purl.org/dc/dcmitype/StillImage" />
        <dc:title></dc:title>
      </cc:Work>
    </rdf:RDF>
  </metadata>
  <g
     transform="translate(-26.629458,-324.03706)"
     id="layer1">
    <g
       transform="matrix(2.3341829,0,0,2.3341829,-1659.7906,-1379.8773)"
       id="g3245">
      <path
         d="m 986.6034,841.18729 13.897,3.11163 5.6951,12.4945 7.2385,-11.59225 14.1739,-1.14675 -9.4278,-10.2765 3.0652,-13.20638 -13.062,5.24575 -12.27953,-7.01612 1.3515,13.51725"
         id="path3027"
         style="fill:#fcd205;fill-opacity:1;fill-rule:nonzero;stroke:none" />
      <path
         d="m 971.81115,880.37642 10.27462,-4.35713 9.7565,5.32475 -1.18412,-10.6375 8.33775,-7.18 -11.00525,-2.2155 -4.60937,-9.76075 -5.6135,9.26625 -11.18625,1.14613 7.53425,7.9445"
         id="path3029"
         style="fill:#fcd205;fill-opacity:1;fill-rule:nonzero;stroke:none" />
      <path
         d="m 944.42315,889.78029 7.57675,-1.14587 5.44275,5.14712 1.19187,-7.209 6.83088,-3.32912 -6.84363,-3.30963 -1.22075,-7.20287 -5.4215,5.16325 -7.58687,-1.12475 3.4905,6.50112"
         id="path3031"
         style="fill:#fcd205;fill-opacity:1;fill-rule:nonzero;stroke:none" />
      <path
         d="m 821.2534,777.21642 c 2.2265,2.22912 6.378,1.38475 8.44225,-0.39575 6.68813,-5.76225 7.9055,-16.11675 8.0975,-16.21863 l -0.005,-0.005 c -0.10025,0.19288 -10.42,1.42813 -16.15325,8.14425 -1.772,2.07788 -2.60713,6.24213 -0.38138,8.47375"
         id="path3033"
         style="fill:#fcd205;fill-opacity:1;fill-rule:nonzero;stroke:none" />
      <path
         d="m 803.7349,769.27029 c 4.26025,0.0263 7.41537,-5.64912 7.67787,-10.03012 0.86563,-14.17725 -7.88675,-27.40913 -7.80187,-27.74025 l -0.009,-0.004 c 0.0875,0.33462 -8.57838,13.45525 -7.62013,27.64362 0.2965,4.38588 3.489,10.10225 7.75,10.1285"
         id="path3035"
         style="fill:#fcd205;fill-opacity:1;fill-rule:nonzero;stroke:none" />
      <path
         d="m 794.62065,770.94392 c 4.02925,-1.37713 5.08175,-7.91663 3.84662,-12.25075 -3.991,-14.02363 -16.73612,-23.96613 -16.76925,-24.3135 l -0.009,-0.003 c 0.19613,0.29825 -3.5315,15.86525 2.18238,29.29925 1.76775,4.15412 6.71612,8.64037 10.74525,7.265"
         id="path3037"
         style="fill:#fcd205;fill-opacity:1;fill-rule:nonzero;stroke:none" />
      <path
         d="m 785.5964,777.64129 c 4.35712,-4.19412 2.51287,-12.548 -1.11788,-16.84387 -11.74175,-13.92588 -32.42287,-17.465 -32.63275,-17.85238 l -0.0113,0.006 c 0.384,0.22175 3.25188,20.88838 16.85825,33.01838 4.206,3.74975 12.54125,5.85987 16.9,1.67012"
         id="path3039"
         style="fill:#fcd205;fill-opacity:1;fill-rule:nonzero;stroke:none" />
      <path
         d="m 779.0714,789.12142 c 1.59112,-6.068 -5.33563,-12.63975 -11.47675,-14.61313 -19.87063,-6.40937 -41.91263,1.24288 -42.3535,1.00325 l -0.007,0.01 c 0.508,-0.004 16.025,17.14463 36.58025,20.95463 6.3535,1.17837 15.658,-1.28788 17.25512,-7.35488"
         id="path3041"
         style="fill:#fcd205;fill-opacity:1;fill-rule:nonzero;stroke:none" />
      <path
         d="m 777.6944,800.49779 c -0.98463,-5.853 -9.81338,-8.76162 -16.10563,-8.03025 -20.37025,2.36 -37.09087,17.68163 -37.57937,17.65 l -0.003,0.0125 c 0.45275,-0.20225 21.18987,8.40575 41.13862,3.54063 6.164,-1.50688 13.5275,-7.31488 12.54638,-13.16975"
         id="path3043"
         style="fill:#fcd205;fill-opacity:1;fill-rule:nonzero;stroke:none" />
      <path
         d="m 780.11202,814.50279 c -3.77175,-5.23475 -13.535,-4.02062 -19.13412,-0.42987 -18.12738,11.61187 -26.512,34.13962 -26.992,34.33175 l 0.004,0.0135 c 0.3305,-0.406 24.12837,-1.535 40.641,-15.38438 5.10375,-4.28312 9.25012,-13.2955 5.481,-18.52925"
         id="path3045"
         style="fill:#fcd205;fill-opacity:1;fill-rule:nonzero;stroke:none" />
      <path
         d="m 787.90115,824.24742 c -4.821,-2.862 -12.51488,2.12962 -15.9885,7.42112 -11.255,17.12513 -10.905,39.45425 -11.24225,39.81363 l 0.008,0.006 c 0.14275,-0.474 19.48837,-11.1005 28.68425,-29.44788 2.83987,-5.67125 3.358,-14.9275 -1.462,-17.79025"
         id="path3047"
         style="fill:#fcd205;fill-opacity:1;fill-rule:nonzero;stroke:none" />
      <path
         d="m 799.83315,829.01729 c -4.9185,-0.50712 -9.19575,5.701 -9.9935,10.7335 -2.58325,16.29163 6.04162,32.56388 5.9075,32.9385 l 0.007,0.004 c -0.0637,-0.39675 11.413,-14.5945 11.89212,-31.10112 0.14775,-5.102 -2.89675,-12.06363 -7.81375,-12.5735"
         id="path3049"
         style="fill:#fcd205;fill-opacity:1;fill-rule:nonzero;stroke:none" />
      <path
         d="m 809.4079,826.67954 c -3.466,0.69313 -5.27538,5.03925 -4.90325,8.032 1.1875,9.6835 10.07075,17.1275 10.04787,17.36463 l 0.008,8.7e-4 c -0.11637,-0.21075 5.1785,-10.48625 2.50525,-19.875 -0.82837,-2.90187 -4.18725,-6.21575 -7.65662,-5.5225"
         id="path3051"
         style="fill:#fcd205;fill-opacity:1;fill-rule:nonzero;stroke:none" />
      <path
         d="m 813.1559,771.12467 c 3.88137,1.72712 8.76512,-1.50875 10.55087,-4.87438 5.78925,-10.89487 2.461,-24.89537 2.65375,-25.124 l -0.004,-0.004 c -0.0382,0.29825 -12.58025,7.22838 -16.70625,18.86238 -1.27675,3.59762 -0.37637,9.40825 3.505,11.137"
         id="path3053"
         style="fill:#fcd205;fill-opacity:1;fill-rule:nonzero;stroke:none" />
      <path
         d="m 827.47165,853.75904 6.32375,0 0,-30.5405 -6.32375,0 0,30.5405 z"
         id="path3055"
         style="fill:#66c430;fill-opacity:1;fill-rule:nonzero;stroke:none" />
      <path
         d="m 845.76827,836.64242 c -1.21062,0 -2.15687,0.34237 -2.8365,1.02875 -0.6805,0.68812 -1.12812,1.6795 -1.3465,2.97062 l 7.89613,0 c 0,-0.50362 -0.0654,-0.99212 -0.1945,-1.467 -0.13,-0.47912 -0.34063,-0.90475 -0.63213,-1.276 -0.29212,-0.37462 -0.67612,-0.67862 -1.15187,-0.90975 -0.47825,-0.231 -1.05588,-0.34662 -1.73463,-0.34662 m -0.12412,-4.36638 c 1.40175,0 2.6845,0.21738 3.8475,0.65325 1.16287,0.43663 2.16275,1.0695 2.99775,1.8985 0.836,0.8285 1.48925,1.84438 1.959,3.04888 0.46975,1.20375 0.70425,2.569 0.70425,4.093 0,0.47487 -0.0204,0.86387 -0.0611,1.16125 -0.0408,0.29987 -0.11562,0.53775 -0.22425,0.71612 -0.10875,0.17588 -0.25487,0.29738 -0.43837,0.36438 -0.1835,0.0697 -0.41888,0.1045 -0.70425,0.1045 l -12.19963,0 c 0.203,1.76875 0.739,3.04887 1.61063,3.84312 0.8715,0.79863 1.99287,1.1935 3.36737,1.1935 0.734,0 1.366,-0.0883 1.897,-0.265 0.52925,-0.17412 1.00325,-0.372 1.41775,-0.59037 0.41463,-0.21738 0.79513,-0.41538 1.14263,-0.59213 0.34737,-0.17587 0.711,-0.26587 1.09075,-0.26587 0.50375,0 0.88425,0.1835 1.14175,0.55225 l 1.83737,2.26475 c -0.65325,0.74762 -1.3575,1.35662 -2.11262,1.82475 -0.75525,0.46887 -1.53088,0.83837 -2.32425,1.10175 -0.79688,0.26587 -1.59288,0.44687 -2.388,0.55137 -0.79675,0.10275 -1.55538,0.15538 -2.27575,0.15538 -1.48162,0 -2.87138,-0.24288 -4.17025,-0.72375 -1.29888,-0.48413 -2.43463,-1.20213 -3.4065,-2.15513 -0.97175,-0.95312 -1.74138,-2.13312 -2.3055,-3.54837 -0.56575,-1.41537 -0.84613,-3.06075 -0.84613,-4.93813 0,-1.41449 0.24051,-2.75324 0.72376,-4.019 0.4825,-1.26575 1.17662,-2.37275 2.0805,-3.32587 0.9055,-0.953 2.00049,-1.70662 3.28499,-2.26475 1.28526,-0.55812 2.73538,-0.83838 4.35363,-0.83838"
         id="path3057"
         style="fill:#66c430;fill-opacity:1;fill-rule:nonzero;stroke:none" />
      <path
         d="m 870.7639,837.23367 c -0.16225,0.25737 -0.33637,0.44175 -0.519,0.5505 -0.1835,0.1095 -0.41888,0.16312 -0.70263,0.16312 -0.299,0 -0.59624,-0.0637 -0.89525,-0.19362 -0.29825,-0.12925 -0.62187,-0.27025 -0.966,-0.41975 -0.3465,-0.14788 -0.73725,-0.28713 -1.17137,-0.41625 -0.43413,-0.12913 -0.92938,-0.19375 -1.485,-0.19375 -0.80025,0 -1.41525,0.15212 -1.84338,0.45787 -0.42812,0.30588 -0.64137,0.73063 -0.64137,1.27425 0,0.39675 0.1385,0.72225 0.418,0.98125 0.27775,0.25913 0.64725,0.48588 1.10938,0.68213 0.46212,0.19787 0.98374,0.38562 1.56912,0.56325 0.5835,0.17675 1.18075,0.37375 1.79062,0.59125 0.61,0.21663 1.208,0.47238 1.7925,0.76375 0.58363,0.29212 1.10438,0.65412 1.56651,1.08137 0.46125,0.429 0.83162,0.94888 1.10937,1.56051 0.27862,0.6125 0.418,1.34899 0.418,2.20362 0,1.04825 -0.18937,2.01238 -0.57175,2.89762 -0.3805,0.88525 -0.94887,1.6455 -1.70325,2.28426 -0.75438,0.63887 -1.68787,1.13587 -2.79562,1.48925 -1.1095,0.35425 -2.38288,0.53187 -3.82363,0.53187 -0.72212,0 -1.4425,-0.0697 -2.162,-0.20662 -0.72212,-0.13488 -1.41775,-0.31763 -2.0915,-0.5495 -0.67362,-0.23375 -1.29625,-0.50725 -1.868,-0.82663 -0.57,-0.31937 -1.06012,-0.66262 -1.46787,-1.03125 l 1.46787,-2.32587 c 0.17675,-0.27113 0.38913,-0.48688 0.63463,-0.64138 0.2455,-0.15725 0.56312,-0.23625 0.9565,-0.23625 0.36775,0 0.69825,0.0824 0.9905,0.24462 0.293,0.16488 0.60912,0.34163 0.94887,0.53088 0.33988,0.19212 0.73913,0.36962 1.1935,0.531 0.4545,0.16313 1.03138,0.24475 1.7245,0.24475 0.48687,0 0.90387,-0.0503 1.24375,-0.153 0.34062,-0.10188 0.61162,-0.24025 0.81637,-0.417 0.20463,-0.176 0.3525,-0.37288 0.44763,-0.59225 0.0951,-0.21738 0.14362,-0.44175 0.14362,-0.6735 0,-0.42138 -0.14362,-0.768 -0.429,-1.03988 -0.2855,-0.27262 -0.66012,-0.508 -1.12225,-0.70412 -0.463,-0.198 -0.98962,-0.38063 -1.58087,-0.55225 -0.59213,-0.169 -1.19275,-0.36275 -1.80613,-0.57938 -0.6115,-0.21925 -1.21387,-0.48087 -1.80512,-0.78662 -0.59038,-0.30588 -1.11875,-0.69413 -1.58,-1.163 -0.46388,-0.46888 -0.83675,-1.044 -1.12225,-1.72363 -0.2855,-0.67962 -0.429,-1.50275 -0.429,-2.46862 0,-0.89975 0.17325,-1.7525 0.52075,-2.56212 0.34737,-0.80863 0.86737,-1.5205 1.5605,-2.13138 0.69325,-0.61337 1.56312,-1.09675 2.6105,-1.45787 1.0475,-0.36 2.2725,-0.54275 3.67237,-0.54275 0.762,0 1.49938,0.0697 2.213,0.20637 0.71613,0.13512 1.38463,0.32463 2.01075,0.56925 0.62525,0.24637 1.197,0.53525 1.71263,0.86912 0.51737,0.33213 0.9735,0.69575 1.36762,1.0915"
         id="path3059"
         style="fill:#66c430;fill-opacity:1;fill-rule:nonzero;stroke:none" />
      <path
         d="m 896.44515,853.75904 -6.9515,0 -9.90938,-25.56325 6.36363,0 c 0.54025,0 0.99562,0.12825 1.36762,0.3815 0.36875,0.254 0.61763,0.57088 0.75275,0.94975 l 3.54913,11.464 c 0.28037,0.93538 0.54625,1.8485 0.80112,2.7345 0.25238,0.88775 0.47238,1.77463 0.65238,2.66325 0.18012,-0.88687 0.40187,-1.77387 0.66525,-2.66325 0.26162,-0.886 0.54362,-1.79912 0.83675,-2.7345 l 3.697,-11.464 c 0.13337,-0.37887 0.37712,-0.69412 0.74075,-0.94975 0.36012,-0.25487 0.78662,-0.3815 1.28187,-0.3815 l 6.06288,0"
         id="path3061"
         style="fill:#66c430;fill-opacity:1;fill-rule:nonzero;stroke:none" />
      <path
         d="m 914.28465,836.64242 c -1.21225,0 -2.15513,0.34237 -2.8365,1.02875 -0.6805,0.68812 -1.12988,1.6795 -1.34475,2.97062 l 7.89525,0 c 0,-0.50362 -0.0637,-0.99212 -0.192,-1.467 -0.13338,-0.47912 -0.34063,-0.90475 -0.63713,-1.276 -0.2905,-0.37462 -0.6745,-0.67862 -1.14937,-0.90975 -0.47575,-0.22937 -1.05588,-0.34662 -1.7355,-0.34662 m -0.1215,-4.36638 c 1.4,0 2.68362,0.21738 3.84575,0.65325 1.16212,0.43663 2.16112,1.0695 2.99875,1.8985 0.83587,0.8285 1.48912,1.84438 1.958,3.04888 0.469,1.20375 0.70425,2.569 0.70425,4.093 0,0.47487 -0.0195,0.86387 -0.0586,1.16125 -0.0416,0.29987 -0.11637,0.53775 -0.22587,0.71612 -0.10963,0.17675 -0.25575,0.29738 -0.43838,0.36438 -0.18262,0.0697 -0.418,0.1045 -0.70425,0.1045 l -12.2005,0 c 0.20638,1.76875 0.74075,3.04887 1.61313,3.84312 0.87075,0.79863 1.993,1.1935 3.3675,1.1935 0.73312,0 1.36762,-0.0883 1.89687,-0.265 0.52925,-0.17412 1.00325,-0.372 1.41788,-0.59037 0.41362,-0.21738 0.79675,-0.41538 1.14337,-0.59213 0.34663,-0.17587 0.7085,-0.26587 1.09163,-0.26587 0.502,0 0.88175,0.1835 1.14087,0.55225 l 1.8375,2.26475 c -0.64987,0.74762 -1.35662,1.35662 -2.11275,1.82475 -0.75437,0.46887 -1.52987,0.83837 -2.32512,1.10175 -0.79588,0.26587 -1.591,0.44687 -2.38538,0.55137 -0.79675,0.10275 -1.55537,0.15538 -2.27662,0.15538 -1.48238,0 -2.873,-0.24288 -4.17363,-0.72375 -1.29712,-0.48413 -2.43287,-1.20213 -3.40562,-2.15513 -0.97263,-0.95312 -1.74063,-2.13312 -2.30638,-3.54837 -0.56325,-1.41537 -0.84612,-3.06075 -0.84612,-4.93813 0,-1.41449 0.24212,-2.75324 0.723,-4.019 0.48337,-1.26575 1.17737,-2.37275 2.08287,-3.32587 0.90388,-0.953 1.99888,-1.70662 3.2825,-2.26475 1.28275,-0.55888 2.73713,-0.83838 4.35538,-0.83838"
         id="path3063"
         style="fill:#66c430;fill-opacity:1;fill-rule:nonzero;stroke:none" />
      <path
         d="m 925.49202,853.75904 0,-21.15762 3.75225,0 c 0.31438,-1.3e-4 0.57513,0.0271 0.78763,0.0816 0.21138,0.0551 0.38812,0.13913 0.52925,0.25388 0.1435,0.11712 0.25138,0.2685 0.32613,0.45962 0.0747,0.19025 0.141,0.42213 0.19362,0.69413 l 0.34838,1.97837 c 0.77562,-1.197 1.64462,-2.14337 2.61137,-2.8365 0.96587,-0.69325 2.01838,-1.04062 3.1635,-1.04062 0.96337,0 1.73887,0.231 2.32425,0.694 l -0.8155,4.65012 c -0.0544,0.28638 -0.164,0.48775 -0.328,0.60238 -0.163,0.1155 -0.3805,0.17325 -0.6515,0.17325 -0.23188,0 -0.50463,-0.0305 -0.81813,-0.0926 -0.31174,-0.0585 -0.70587,-0.0909 -1.17987,-0.0909 -1.66,0 -2.969,0.88437 -3.91963,2.6505 l 0,12.976 -6.32362,0"
         id="path3065"
         style="fill:#66c430;fill-opacity:1;fill-rule:nonzero;stroke:none" />
      <path
         d="m 950.1939,854.08617 c -1.0075,0 -1.89363,-0.14625 -2.66325,-0.441 -0.76963,-0.29138 -1.41613,-0.70588 -1.93775,-1.24375 -0.524,-0.53513 -0.92163,-1.18663 -1.1935,-1.947 -0.271,-0.76038 -0.40775,-1.61225 -0.40775,-2.55013 l 0,-10.93475 -1.79325,0 c -0.3305,0 -0.60662,-0.10625 -0.83762,-0.31612 -0.23188,-0.21238 -0.3475,-0.52238 -0.3475,-0.92925 l 0,-2.46863 3.3675,-0.6525 1.2445,-5.15987 c 0.16137,-0.65575 0.62612,-0.9795 1.3855,-0.9795 l 3.30537,0 0,6.18187 5.14125,0 0,4.324 -5.14125,0 0,10.50738 c 0,0.48937 0.11813,0.89375 0.35688,1.21312 0.24037,0.3195 0.58275,0.47913 1.03212,0.47913 0.23188,0 0.42475,-0.0212 0.58188,-0.0714 0.15637,-0.0475 0.29137,-0.10187 0.40687,-0.16225 0.11725,-0.0604 0.22513,-0.11725 0.3305,-0.16312 0.10025,-0.0476 0.2175,-0.073 0.356,-0.073 0.19188,0 0.34313,0.0459 0.46038,0.13512 0.11462,0.0883 0.23275,0.2285 0.356,0.417 l 1.91812,3.00038 c -0.81637,0.61262 -1.73212,1.07137 -2.75325,1.378 -1.02625,0.30237 -2.08037,0.45625 -3.16775,0.45625"
         id="path3067"
         style="fill:#66c430;fill-opacity:1;fill-rule:nonzero;stroke:none" />
      <path
         d="m 972.66652,837.23367 c -0.16399,0.25737 -0.33637,0.44175 -0.51987,0.5505 -0.18263,0.1095 -0.418,0.16312 -0.70338,0.16312 -0.29737,0 -0.59887,-0.0637 -0.89375,-0.19362 -0.30062,-0.12925 -0.6235,-0.27025 -0.97012,-0.41975 -0.3465,-0.14788 -0.73475,-0.28713 -1.16963,-0.41625 -0.435,-0.12913 -0.9295,-0.19375 -1.48837,-0.19375 -0.79775,0 -1.41363,0.15212 -1.84087,0.45787 -0.429,0.30588 -0.64313,0.73063 -0.64313,1.27425 0,0.39675 0.13938,0.72225 0.418,0.98125 0.27688,0.25913 0.64475,0.48588 1.1085,0.68213 0.46225,0.19787 0.98463,0.38562 1.56663,0.56325 0.58525,0.17675 1.1825,0.37375 1.7915,0.59125 0.61162,0.21663 1.208,0.47238 1.79337,0.76375 0.581,0.29212 1.1085,0.65412 1.56638,1.08137 0.4605,0.429 0.83337,0.94888 1.11037,1.56051 0.2795,0.6125 0.418,1.34899 0.418,2.20362 0,1.04825 -0.19125,2.01238 -0.57012,2.89762 -0.38313,0.88525 -0.95063,1.6455 -1.70325,2.28426 -0.756,0.63887 -1.68788,1.13587 -2.7965,1.48925 -1.10775,0.35425 -2.38463,0.53187 -3.82525,0.53187 -0.72213,0 -1.4425,-0.0697 -2.16113,-0.20662 -0.723,-0.13488 -1.41962,-0.31763 -2.0915,-0.5495 -0.6745,-0.23375 -1.29637,-0.50725 -1.869,-0.82663 -0.56912,-0.31937 -1.05925,-0.66262 -1.46787,-1.03125 l 1.46787,-2.32587 c 0.17513,-0.27113 0.38913,-0.48688 0.6355,-0.64138 0.24638,-0.15725 0.56413,-0.23625 0.95825,-0.23625 0.36525,0 0.69663,0.0824 0.98875,0.24462 0.29138,0.16488 0.60825,0.34163 0.949,0.53088 0.33888,0.19212 0.739,0.36962 1.19088,0.531 0.45712,0.16313 1.033,0.24475 1.72712,0.24475 0.48675,0 0.90388,-0.0503 1.24363,-0.153 0.33812,-0.10188 0.60825,-0.24025 0.81562,-0.417 0.2055,-0.176 0.35325,-0.37288 0.45013,-0.59225 0.0935,-0.21738 0.141,-0.44175 0.141,-0.6735 0,-0.42138 -0.141,-0.768 -0.429,-1.03988 -0.28625,-0.27262 -0.65913,-0.508 -1.123,-0.70412 -0.463,-0.198 -0.9905,-0.38063 -1.58013,-0.55225 -0.59287,-0.169 -1.191,-0.36275 -1.80775,-0.57938 -0.61075,-0.21925 -1.213,-0.48087 -1.80687,-0.78662 -0.59038,-0.30588 -1.11538,-0.69413 -1.5775,-1.163 -0.46375,-0.46888 -0.8385,-1.044 -1.1255,-1.72363 -0.28213,-0.67962 -0.42563,-1.50275 -0.42563,-2.46862 0,-0.89975 0.1725,-1.7525 0.51988,-2.56212 0.34662,-0.80863 0.86825,-1.5205 1.5605,-2.13138 0.69237,-0.61337 1.56737,-1.09675 2.61387,-1.45787 1.04413,-0.36 2.2725,-0.54275 3.67075,-0.54275 0.76025,0 1.49938,0.0697 2.2155,0.20637 0.71275,0.13512 1.38125,0.32463 2.00738,0.56925 0.6235,0.24637 1.19687,0.53525 1.71425,0.86912 0.51737,0.33213 0.971,0.69575 1.36512,1.0915"
         id="path3069"
         style="fill:#66c430;fill-opacity:1;fill-rule:nonzero;stroke:none" />
      <path
         d="m 858.1089,758.23279 c -1.462,0 -2.60375,0.41538 -3.42513,1.2445 -0.82412,0.82825 -1.366,2.02688 -1.62849,3.58663 l 9.53987,0 c 0,-0.6075 -0.079,-1.2005 -0.2345,-1.77388 -0.15625,-0.575 -0.41112,-1.089 -0.76537,-1.541 -0.35338,-0.45112 -0.81813,-0.81887 -1.39313,-1.09662 -0.57263,-0.28038 -1.27175,-0.41963 -2.09325,-0.41963 m -0.14775,-5.2755 c 1.693,0 3.24162,0.26425 4.64675,0.7885 1.405,0.52575 2.613,1.28863 3.62475,2.29188 1.011,1.00325 1.79925,2.23162 2.365,3.685 0.56838,1.45437 0.85125,3.1015 0.85125,4.94162 0,0.57763 -0.0264,1.04488 -0.0739,1.40763 -0.0494,0.35937 -0.14024,0.649 -0.27187,0.86225 -0.13163,0.21412 -0.30837,0.36187 -0.52925,0.44512 -0.22262,0.0806 -0.5055,0.12138 -0.85037,0.12138 l -14.74225,0 c 0.24725,2.13662 0.89625,3.68525 1.948,4.64775 1.05075,0.96337 2.40662,1.44162 4.0665,1.44162 0.88937,0 1.65225,-0.10625 2.292,-0.32037 0.64212,-0.21313 1.21225,-0.45025 1.71425,-0.71438 0.50037,-0.2625 0.96162,-0.50025 1.38125,-0.7145 0.418,-0.214 0.858,-0.32012 1.3185,-0.32012 0.60737,0 1.06775,0.22 1.38037,0.66512 l 2.21813,2.73713 c -0.78838,0.90462 -1.63875,1.63862 -2.55113,2.207 -0.9115,0.56575 -1.84937,1.01087 -2.80925,1.33125 -0.96162,0.31925 -1.92325,0.54187 -2.88488,0.66662 -0.9625,0.12238 -1.8775,0.18363 -2.74825,0.18363 -1.7915,0 -3.47187,-0.29225 -5.04175,-0.87763 -1.56987,-0.58025 -2.94087,-1.44925 -4.1175,-2.59937 -1.17575,-1.15025 -2.10425,-2.57988 -2.78462,-4.29 -0.68138,-1.70913 -1.02363,-3.69788 -1.02363,-5.96613 0,-1.70825 0.29225,-3.32825 0.87488,-4.85562 0.58287,-1.52825 1.42037,-2.86713 2.51462,-4.01825 1.09238,-1.14838 2.41676,-2.06338 3.96875,-2.737 1.553,-0.67275 3.30625,-1.01013 5.26363,-1.01013"
         id="path3071"
         style="fill:#66c430;fill-opacity:1;fill-rule:nonzero;stroke:none" />
      <path
         d="m 878.10352,757.75879 0,13.42375 c 0,1.04738 0.23713,1.85775 0.71625,2.42863 0.474,0.57087 1.17475,0.85712 2.09988,0.85712 0.69412,0 1.34312,-0.14262 1.94625,-0.429 0.60475,-0.28612 1.19525,-0.68625 1.767,-1.20362 l 0,-15.07613 6.327,0 0,21.15513 -3.91788,0 c -0.78912,0 -1.304,-0.35338 -1.55037,-1.06025 l -0.389,-1.22488 c -0.40613,0.39575 -0.82825,0.75263 -1.26413,1.07125 -0.43662,0.32013 -0.903,0.59113 -1.39912,0.81625 -0.49525,0.22438 -1.03038,0.40025 -1.59963,0.531 -0.57162,0.12913 -1.19687,0.19288 -1.87825,0.19288 -1.15525,0 -2.17975,-0.2005 -3.07,-0.60225 -0.892,-0.401 -1.64375,-0.96175 -2.2555,-1.683 -0.61162,-0.72025 -1.07462,-1.57075 -1.38725,-2.55013 -0.31262,-0.98125 -0.46887,-2.05487 -0.46887,-3.224 l 0,-13.42287"
         id="path3073"
         style="fill:#66c430;fill-opacity:1;fill-rule:nonzero;stroke:none" />
      <path
         d="m 894.24927,778.91379 0,-21.155 3.75638,0 c 0.31262,0 0.57438,0.0263 0.785,0.0806 0.2115,0.056 0.389,0.1385 0.53087,0.25475 0.141,0.1165 0.25238,0.27113 0.32538,0.45875 0.0756,0.192 0.1385,0.42225 0.1945,0.69488 l 0.34662,1.97775 c 0.77563,-1.19613 1.64888,-2.14238 2.61138,-2.83488 0.96587,-0.69575 2.021,-1.04138 3.1635,-1.04138 0.96425,0 1.73975,0.231 2.32512,0.694 l -0.81637,4.65025 c -0.0544,0.28525 -0.16138,0.48675 -0.32538,0.60225 -0.16475,0.11463 -0.38225,0.17325 -0.65412,0.17325 -0.22925,0 -0.50375,-0.0306 -0.8155,-0.0926 -0.31425,-0.0611 -0.7085,-0.09 -1.1825,-0.09 -1.66163,0 -2.96813,0.88438 -3.91875,2.653 l 0,12.97263 -6.32613,0"
         id="path3075"
         style="fill:#66c430;fill-opacity:1;fill-rule:nonzero;stroke:none" />
      <path
         d="m 919.02065,774.54992 c 1.45687,0 2.52637,-0.513 3.21187,-1.54013 0.68638,-1.02612 1.03138,-2.5875 1.03138,-4.6825 0,-2.094 -0.34325,-3.65112 -1.03138,-4.67137 -0.6855,-1.02025 -1.75762,-1.53075 -3.21187,-1.53075 -1.49688,0 -2.59012,0.5105 -3.285,1.53075 -0.69663,1.02025 -1.04062,2.57737 -1.04062,4.67137 0,2.095 0.34562,3.65638 1.04062,4.6825 0.69488,1.02713 1.78812,1.54013 3.285,1.54013 m 0,-17.11575 c 1.60463,0 3.06575,0.24975 4.38587,0.75437 1.31938,0.50375 2.45088,1.225 3.39638,2.162 0.94375,0.93775 1.68112,2.07713 2.20438,3.41838 0.52249,1.33962 0.78499,2.845 0.78499,4.5185 0,1.68625 -0.2625,3.20425 -0.78499,4.55925 -0.52488,1.35237 -1.26138,2.50262 -2.20438,3.44725 -0.9455,0.9455 -2.077,1.67362 -3.39638,2.18237 -1.31837,0.5105 -2.78125,0.76375 -4.38587,0.76375 -1.61662,0 -3.09225,-0.25325 -4.41663,-0.76375 -1.32687,-0.5105 -2.47112,-1.23775 -3.42775,-2.18237 -0.95825,-0.94463 -1.70062,-2.09488 -2.22312,-3.44725 -0.52575,-1.355 -0.78413,-2.873 -0.78413,-4.55925 0,-1.67513 0.25838,-3.17888 0.78413,-4.5185 0.5225,-1.34125 1.26487,-2.47888 2.22312,-3.41838 0.95663,-0.937 2.10263,-1.65912 3.42775,-2.162 1.32438,-0.50462 2.80001,-0.75437 4.41663,-0.75437"
         id="path3077"
         style="fill:#66c430;fill-opacity:1;fill-rule:nonzero;stroke:none" />
      <path
         d="m 942.1644,762.18629 c -0.46388,0 -0.87925,0.046 -1.2555,0.13175 -0.37388,0.0891 -0.7205,0.214 -1.03988,0.3805 -0.31937,0.16138 -0.61587,0.36788 -0.88775,0.621 -0.27099,0.25225 -0.54362,0.54025 -0.81725,0.86638 l 0,8.97675 c 0.47838,0.531 0.99313,0.9005 1.55125,1.11112 0.55813,0.2115 1.14425,0.31775 1.75425,0.31775 0.58525,0 1.12213,-0.1155 1.61488,-0.34912 0.48675,-0.23113 0.91412,-0.60238 1.27175,-1.11113 0.3635,-0.51062 0.64475,-1.17237 0.84687,-1.98875 0.20475,-0.81712 0.30663,-1.8085 0.30663,-2.97912 0,-1.11463 -0.0815,-2.05413 -0.24463,-2.81525 -0.16225,-0.762 -0.39075,-1.377 -0.68212,-1.84775 -0.29138,-0.46963 -0.64225,-0.80525 -1.05163,-1.01 -0.40787,-0.20475 -0.86487,-0.30413 -1.36687,-0.30413 m -10.32225,23.44113 0,-27.867 3.91612,0 c 0.39426,0 0.723,0.09 0.98963,0.26587 0.26513,0.17413 0.452,0.44088 0.55988,0.79425 l 0.46975,1.55125 c 0.4095,-0.44687 0.84612,-0.858 1.31587,-1.22425 0.46975,-0.366 0.97187,-0.68287 1.5105,-0.94712 0.53688,-0.26675 1.11537,-0.474 1.73375,-0.62438 0.6185,-0.1495 1.2955,-0.22337 2.03038,-0.22337 1.10175,0 2.12112,0.2455 3.05812,0.734 0.93875,0.48837 1.74663,1.19687 2.42963,2.122 0.67875,0.92512 1.21312,2.05662 1.60037,3.39637 0.38913,1.3405 0.582,2.86013 0.582,4.56013 0,1.591 -0.22087,3.0615 -0.66175,4.40725 -0.44437,1.3455 -1.0645,2.516 -1.85875,3.50837 -0.79338,0.99213 -1.74575,1.76863 -2.85425,2.325 -1.1095,0.55725 -2.33612,0.8375 -3.68262,0.8375 -1.10263,0 -2.02613,-0.15537 -2.7745,-0.46962 -0.74838,-0.3125 -1.42888,-0.734 -2.04226,-1.265 l 0,8.12125 -6.32362,0"
         id="path3079"
         style="fill:#66c430;fill-opacity:1;fill-rule:nonzero;stroke:none" />
      <path
         d="m 964.39065,761.79804 c -1.2105,0 -2.15513,0.34413 -2.833,1.03038 -0.68213,0.68737 -1.129,1.677 -1.3465,2.96825 l 7.89525,0 c 0,-0.50288 -0.0636,-0.99213 -0.19363,-1.468 -0.12912,-0.4765 -0.339,-0.90125 -0.63387,-1.275 -0.29125,-0.373 -0.677,-0.67713 -1.15275,-0.90813 -0.47825,-0.23025 -1.055,-0.3475 -1.7355,-0.3475 m -0.12312,-4.36475 c 1.4025,0 2.68362,0.2175 3.8465,0.65338 1.16212,0.43575 2.16287,1.06775 2.99787,1.896 0.83763,0.83087 1.49013,1.84687 1.96062,3.05062 0.47076,1.20375 0.70438,2.56888 0.70438,4.09025 0,0.47663 -0.0205,0.86388 -0.0595,1.16463 -0.0425,0.29825 -0.11725,0.53612 -0.22512,0.71275 -0.10963,0.17675 -0.254,0.3 -0.44013,0.36875 -0.1825,0.0671 -0.41787,0.10112 -0.7025,0.10112 l -12.20225,0 c 0.20562,1.76863 0.7425,3.0505 1.61325,3.8465 0.87075,0.79525 1.99287,1.19175 3.36737,1.19175 0.73325,0 1.36863,-0.0874 1.89613,-0.265 0.53175,-0.1775 1.00325,-0.37375 1.4195,-0.593 0.41288,-0.21737 0.796,-0.41437 1.14263,-0.59112 0.34662,-0.17588 0.71012,-0.26588 1.09162,-0.26588 0.50375,0 0.8835,0.18525 1.1425,0.553 l 1.83575,2.26475 c -0.65063,0.74663 -1.35413,1.355 -2.111,1.82563 -0.756,0.46887 -1.53163,0.83762 -2.32675,1.10262 -0.796,0.26588 -1.5885,0.446 -2.38625,0.54875 -0.79513,0.10363 -1.55288,0.1545 -2.27575,0.1545 -1.48163,0 -2.87313,-0.24112 -4.17025,-0.72287 -1.30138,-0.48413 -2.43638,-1.201 -3.40738,-2.15263 -0.97262,-0.95225 -1.74062,-2.13475 -2.30462,-3.54837 -0.56575,-1.41513 -0.84788,-3.0615 -0.84788,-4.93813 0,-1.41512 0.24213,-2.75487 0.7255,-4.01975 0.48338,-1.26662 1.17488,-2.37262 2.08213,-3.325 0.90387,-0.95225 1.99887,-1.7065 3.28337,-2.26475 1.281,-0.55987 2.732,-0.8385 4.35025,-0.8385"
         id="path3081"
         style="fill:#66c430;fill-opacity:1;fill-rule:nonzero;stroke:none" />
      <path
         d="m 804.23115,793.01804 c -1.812,0 -3.22825,0.51475 -4.24588,1.54263 -1.01775,1.02875 -1.6905,2.51037 -2.015,4.44462 l 11.82163,0 c 0,-0.75262 -0.096,-1.48575 -0.28888,-2.19925 -0.1945,-0.712 -0.5105,-1.34912 -0.948,-1.908 -0.4375,-0.55987 -1.01425,-1.01262 -1.72537,-1.35925 -0.71613,-0.34662 -1.58175,-0.52075 -2.5985,-0.52075 m -0.1835,-6.53512 c 2.09737,0 4.01725,0.32362 5.75875,0.97512 1.74062,0.65338 3.23825,1.6005 4.49125,2.84238 1.25137,1.24287 2.22912,2.76512 2.9325,4.56612 0.7025,1.80438 1.0525,3.844 1.0525,6.12488 0,0.71362 -0.028,1.29462 -0.09,1.7425 -0.0612,0.44837 -0.17425,0.80437 -0.3365,1.0685 -0.16388,0.26512 -0.38138,0.4485 -0.65663,0.55062 -0.27437,0.10188 -0.62687,0.15113 -1.05337,0.15113 l -18.2685,0 c 0.30412,2.64787 1.10862,4.56775 2.41175,5.75875 1.304,1.19012 2.98425,1.78725 5.041,1.78725 1.10087,0 2.04637,-0.1325 2.84062,-0.39663 0.79438,-0.265 1.50113,-0.56062 2.12288,-0.88612 0.621,-0.32613 1.19112,-0.62175 1.711,-0.886 0.519,-0.265 1.06187,-0.3975 1.6335,-0.3975 0.7535,0 1.32437,0.27362 1.71175,0.82487 l 2.749,3.392 c -0.97863,1.11875 -2.03113,2.03113 -3.16175,2.73375 -1.13163,0.70338 -2.292,1.25388 -3.48388,1.64975 -1.19012,0.39838 -2.382,0.67275 -3.573,0.82575 -1.19187,0.15363 -2.32675,0.22838 -3.4065,0.22838 -2.22062,0 -4.30275,-0.36175 -6.24812,-1.08475 -1.9445,-0.72213 -3.64513,-1.79675 -5.10113,-3.22138 -1.45612,-1.42625 -2.60712,-3.2 -3.45162,-5.31862 -0.84525,-2.11613 -1.26738,-4.58138 -1.26738,-7.39063 0,-2.117 0.36013,-4.12437 1.08313,-6.01875 0.72287,-1.8935 1.7635,-3.55425 3.11675,-4.97887 1.35325,-1.4255 2.99362,-2.55538 4.91775,-3.39213 1.92662,-0.83412 4.10062,-1.25037 6.52425,-1.25037"
         id="path3083"
         style="fill:#003f18;fill-opacity:1;fill-rule:nonzero;stroke:none" />
      <path
         d="m 841.27865,799.31792 c -0.23025,0.27775 -0.44688,0.49787 -0.66013,0.65837 -0.21149,0.1665 -0.51475,0.2455 -0.90637,0.2455 -0.373,0 -0.71275,-0.0884 -1.0135,-0.2685 -0.3015,-0.17912 -0.63875,-0.37787 -1.01262,-0.59875 -0.37625,-0.22012 -0.8155,-0.418 -1.32013,-0.59812 -0.50537,-0.17925 -1.13225,-0.27 -1.88162,-0.27 -0.92925,0 -1.73125,0.17325 -2.40738,0.51387 -0.67625,0.34063 -1.2335,0.83088 -1.67362,1.468 -0.43913,0.63538 -0.76538,1.4135 -0.97775,2.33263 -0.2115,0.9225 -0.31763,1.95975 -0.31763,3.11762 0,2.42625 0.46713,4.29163 1.405,5.594 0.937,1.30488 2.22663,1.95638 3.87288,1.95638 0.88012,0 1.57662,-0.11125 2.08975,-0.32963 0.51312,-0.21912 0.94887,-0.46475 1.30912,-0.733 0.35763,-0.2685 0.68638,-0.51737 0.98875,-0.74762 0.30075,-0.22513 0.68138,-0.33988 1.13663,-0.33988 0.6015,0 1.05937,0.21913 1.36775,0.6585 l 2.201,2.71488 c -0.78313,0.89537 -1.60638,1.62425 -2.4695,2.18575 -0.863,0.56237 -1.74825,1.00325 -2.65125,1.32025 -0.90388,0.3185 -1.81363,0.53687 -2.72513,0.65912 -0.91325,0.12225 -1.80012,0.18263 -2.66325,0.18263 -1.54862,0 -3.0285,-0.293 -4.437,-0.87838 -1.40925,-0.58612 -2.64775,-1.43825 -3.71475,-2.55362 -1.067,-1.117 -1.914,-2.48988 -2.54175,-4.11925 -0.62688,-1.6285 -0.94038,-3.48638 -0.94038,-5.57013 0,-1.82637 0.27438,-3.53475 0.81975,-5.12337 0.54538,-1.58763 1.35238,-2.96475 2.41938,-4.13013 1.067,-1.16387 2.38625,-2.07887 3.9595,-2.74737 1.57163,-0.66938 3.39213,-1.0025 5.46313,-1.0025 1.98787,0 3.73025,0.31787 5.2295,0.95237 1.49937,0.63538 2.85012,1.56475 4.05562,2.7855"
         id="path3085"
         style="fill:#003f18;fill-opacity:1;fill-rule:nonzero;stroke:none" />
      <path
         d="m 857.4599,813.41967 c 1.74312,0 3.02675,-0.61588 3.84825,-1.84588 0.82137,-1.23012 1.2335,-3.1 1.2335,-5.6085 0,-2.50937 -0.41213,-4.37487 -1.2335,-5.59487 -0.82238,-1.224 -2.10513,-1.83488 -3.84825,-1.83488 -1.79162,0 -3.10413,0.61088 -3.93488,1.83488 -0.82999,1.22 -1.24712,3.0855 -1.24712,5.59487 0,2.5085 0.41713,4.37838 1.24712,5.6085 0.83163,1.23 2.14163,1.84588 3.93488,1.84588 m 0,-20.5045 c 1.92237,0 3.67412,0.3025 5.25412,0.90487 1.58088,0.60225 2.93588,1.4645 4.06738,2.59175 1.13587,1.12313 2.01425,2.4865 2.64112,4.09213 0.62788,1.60537 0.94213,3.409 0.94213,5.41375 0,2.02025 -0.3135,3.83987 -0.94213,5.4615 -0.62687,1.6225 -1.50525,2.99862 -2.64112,4.13025 -1.1315,1.13325 -2.4865,2.00312 -4.06738,2.61475 -1.58175,0.61 -3.33337,0.91575 -5.25412,0.91575 -1.93938,0 -3.7005,-0.30338 -5.2915,-0.91575 -1.58863,-0.61163 -2.95713,-1.4815 -4.10563,-2.6155 -1.14775,-1.1325 -2.03637,-2.50863 -2.66412,-4.1295 -0.62688,-1.62338 -0.94038,-3.44213 -0.94038,-5.46313 0,-2.00312 0.31438,-3.80675 0.94038,-5.41312 0.62775,-1.60538 1.5155,-2.96888 2.66412,-4.09288 1.1485,-1.1255 2.517,-1.98775 4.10563,-2.59 1.58937,-0.60237 3.35037,-0.90487 5.2915,-0.90487"
         id="path3087"
         style="fill:#003f18;fill-opacity:1;fill-rule:nonzero;stroke:none" />
      <path
         d="m 873.39227,818.64917 7.5775,0 0,-36.5845 -7.5775,0 0,36.5845 z"
         id="path3089"
         style="fill:#003f18;fill-opacity:1;fill-rule:nonzero;stroke:none" />
      <path
         d="m 896.9999,813.41967 c 1.74487,0 3.02675,-0.61588 3.849,-1.84588 0.8215,-1.23012 1.2335,-3.1 1.2335,-5.6085 0,-2.50937 -0.412,-4.37487 -1.2335,-5.59487 -0.82313,-1.224 -2.10588,-1.83488 -3.849,-1.83488 -1.7925,0 -3.1015,0.61088 -3.93237,1.83488 -0.83251,1.22 -1.24788,3.0855 -1.24788,5.59487 0,2.5085 0.41537,4.37838 1.24788,5.6085 0.83087,1.23 2.13987,1.84588 3.93237,1.84588 m 0,-20.5045 c 1.92325,0 3.67487,0.3025 5.255,0.90487 1.58,0.60225 2.93587,1.4645 4.06987,2.59175 1.13163,1.12313 2.01088,2.4865 2.63863,4.09213 0.62775,1.60537 0.9395,3.409 0.9395,5.41375 0,2.02025 -0.31175,3.83987 -0.9395,5.4615 -0.62613,1.6225 -1.50537,2.99862 -2.63863,4.13025 -1.134,1.13325 -2.48987,2.00312 -4.06987,2.61475 -1.58175,0.61237 -3.3335,0.91662 -5.255,0.91662 -1.93863,0 -3.70125,-0.30425 -5.29163,-0.91662 -1.58762,-0.61163 -2.95625,-1.4815 -4.10474,-2.61475 -1.14938,-1.13163 -2.03626,-2.50775 -2.664,-4.13025 -0.62863,-1.62163 -0.94038,-3.44125 -0.94038,-5.4615 0,-2.00475 0.31425,-3.80838 0.94038,-5.41375 0.62775,-1.60563 1.51462,-2.969 2.664,-4.09213 1.14849,-1.12725 2.51712,-1.9895 4.10474,-2.59175 1.59038,-0.60237 3.353,-0.90487 5.29163,-0.90487"
         id="path3091"
         style="fill:#003f18;fill-opacity:1;fill-rule:nonzero;stroke:none" />
      <path
         d="m 923.61815,804.64517 c 1.25387,0 2.16275,-0.31263 2.72425,-0.9395 0.56237,-0.62788 0.84275,-1.43913 0.84275,-2.433 0,-1.02525 -0.28038,-1.83238 -0.84275,-2.41688 -0.5615,-0.5895 -1.47038,-0.88175 -2.72425,-0.88175 -1.2565,0 -2.16375,0.29225 -2.72525,0.88175 -0.5615,0.5845 -0.84275,1.39063 -0.84275,2.41688 0,0.48762 0.0689,0.93787 0.20812,1.34475 0.13688,0.40775 0.35338,0.76112 0.64825,1.06175 0.293,0.30337 0.66175,0.53875 1.11025,0.7095 0.44688,0.16987 0.982,0.2565 1.60138,0.2565 m 5.62112,14.93262 c 0,-0.40787 -0.12662,-0.73325 -0.37975,-0.97612 -0.2515,-0.24563 -0.59462,-0.44188 -1.02362,-0.58625 -0.43238,-0.14775 -0.937,-0.254 -1.51638,-0.31763 -0.57687,-0.0655 -1.20287,-0.1155 -1.86975,-0.14875 -0.67112,-0.0314 -1.36087,-0.0594 -2.07875,-0.0849 -0.71787,-0.023 -1.4255,-0.0774 -2.12625,-0.16062 -0.47237,0.327 -0.858,0.689 -1.1605,1.08912 -0.29987,0.39763 -0.45362,0.85113 -0.45362,1.35663 0,0.35675 0.0774,0.68475 0.232,0.97775 0.15537,0.2905 0.429,0.5445 0.81887,0.75612 0.3925,0.21225 0.91663,0.3805 1.5775,0.50288 0.65838,0.12062 1.49425,0.18262 2.50438,0.18262 1.09075,0 1.987,-0.0645 2.68687,-0.19537 0.70175,-0.13088 1.25813,-0.31 1.67438,-0.536 0.41375,-0.2295 0.70425,-0.50125 0.86825,-0.81988 0.16475,-0.31675 0.24637,-0.66337 0.24637,-1.03962 m -5.62112,-26.71 c 1.07537,0 2.08887,0.10437 3.042,0.31675 0.95312,0.2115 1.84,0.51225 2.65387,0.90387 l 7.64888,0 0,2.76175 c 0,0.424 -0.1215,0.75775 -0.35425,1.0015 -0.2345,0.24563 -0.63888,0.43325 -1.20963,0.56238 l -1.8545,0.41462 c 0.22675,0.73563 0.34063,1.49088 0.34063,2.27413 0,1.27 -0.265,2.41175 -0.79425,3.42 -0.52925,1.01262 -1.25563,1.87237 -2.17563,2.58087 -0.91912,0.70838 -2.0065,1.25213 -3.26112,1.63525 -1.2565,0.38475 -2.5995,0.57588 -4.03175,0.57588 -0.80113,0 -1.5495,-0.05 -2.24863,-0.14688 -0.5565,0.32525 -0.836,0.69913 -0.836,1.12313 0,0.42475 0.22525,0.7305 0.672,0.91737 0.4485,0.18688 1.04238,0.3185 1.77375,0.39163 0.734,0.0722 1.57325,0.1215 2.51875,0.1435 0.94388,0.0272 1.90538,0.0834 2.88325,0.17325 0.97863,0.0892 1.94025,0.2405 2.884,0.45112 0.9455,0.21325 1.78488,0.55313 2.51963,1.02713 0.73225,0.47062 1.32262,1.1035 1.77037,1.89275 0.44938,0.79162 0.67363,1.79737 0.67363,3.02 0,1.139 -0.27863,2.25525 -0.8325,3.346 -0.553,1.0925 -1.3685,2.061 -2.44488,2.90875 -1.07375,0.846 -2.39387,1.5265 -3.95775,2.043 -1.56475,0.51237 -3.35725,0.76962 -5.37737,0.76962 -1.98875,0 -3.703,-0.18937 -5.1445,-0.56237 -1.44163,-0.37713 -2.63863,-0.869 -3.59263,-1.47988 -0.95312,-0.60887 -1.65737,-1.31575 -2.11437,-2.11262 -0.45625,-0.7985 -0.68388,-1.631 -0.68388,-2.49325 0,-1.12563 0.34325,-2.07275 1.0245,-2.84663 0.68563,-0.77475 1.62338,-1.3805 2.81188,-1.82062 -0.57,-0.37538 -1.02713,-0.8545 -1.3685,-1.44063 -0.34075,-0.58787 -0.51063,-1.32862 -0.51063,-2.22487 0,-0.37463 0.062,-0.76963 0.19288,-1.18588 0.13075,-0.4155 0.3355,-0.81812 0.61,-1.208 0.27862,-0.3925 0.62762,-0.76962 1.05162,-1.12562 0.423,-0.35763 0.9285,-0.67613 1.51463,-0.95563 -1.31838,-0.69825 -2.35738,-1.62762 -3.116,-2.7855 -0.75688,-1.15625 -1.13663,-2.49925 -1.13663,-4.03262 0,-1.26988 0.26938,-2.41513 0.80788,-3.43275 0.53687,-1.01775 1.27425,-1.88175 2.21212,-2.59025 0.93613,-0.70925 2.04138,-1.253 3.3105,-1.63613 1.2675,-0.38475 2.64538,-0.57412 4.12863,-0.57412"
         id="path3093"
         style="fill:#003f18;fill-opacity:1;fill-rule:nonzero;stroke:none" />
      <path
         d="m 948.2604,818.64917 -7.5775,0 0,-25.34313 7.5775,0 0,25.34313 z m 0.88012,-32.28275 c 0,0.60325 -0.12237,1.16987 -0.367,1.69825 -0.2455,0.52925 -0.5785,0.993 -1.00162,1.39312 -0.42388,0.401 -0.9165,0.71625 -1.47813,0.95225 -0.5615,0.23713 -1.16212,0.3535 -1.79837,0.3535 -0.61925,0 -1.19775,-0.11637 -1.73375,-0.3535 -0.53775,-0.236 -1.01525,-0.553 -1.43063,-0.95225 -0.4145,-0.40012 -0.74075,-0.86312 -0.97687,-1.39312 -0.23538,-0.52838 -0.35425,-1.096 -0.35425,-1.69825 0,-0.61925 0.11975,-1.19863 0.35425,-1.73638 0.23612,-0.53675 0.56237,-1.00825 0.97687,-1.41525 0.41538,-0.40762 0.89288,-0.7255 1.43063,-0.954 0.536,-0.2285 1.11537,-0.34137 1.73375,-0.34137 0.63625,0 1.23512,0.11287 1.79837,0.34137 0.56325,0.22775 1.05425,0.5455 1.47813,0.954 0.42312,0.407 0.75612,0.8785 1.00162,1.41525 0.24463,0.53775 0.367,1.11713 0.367,1.73638"
         id="path3095"
         style="fill:#003f18;fill-opacity:1;fill-rule:nonzero;stroke:none" />
      <path
         d="m 963.06202,798.14392 c -1.44662,0 -2.58237,0.412 -3.39625,1.23512 -0.81387,0.82313 -1.35237,2.00738 -1.61325,3.55613 l 9.4575,0 c 0,-0.60225 -0.0764,-1.19188 -0.23187,-1.761 -0.1555,-0.57013 -0.40688,-1.07713 -0.75775,-1.52575 -0.35,-0.44775 -0.81038,-0.81038 -1.37963,-1.089 -0.56825,-0.27613 -1.26237,-0.4155 -2.07875,-0.4155 m -0.1435,-5.22875 c 1.67688,0 3.2145,0.26012 4.60425,0.78162 1.39063,0.52163 2.59188,1.27938 3.59175,2.2725 1.0015,0.99563 1.78313,2.21375 2.34713,3.6545 0.55987,1.44075 0.841,3.07525 0.841,4.90075 0,0.57263 -0.0238,1.03463 -0.073,1.39313 -0.0468,0.3585 -0.13675,0.64312 -0.26763,0.8555 -0.13162,0.21237 -0.30662,0.36025 -0.52587,0.44012 -0.22088,0.0806 -0.50288,0.12138 -0.84263,0.12138 l -14.61562,0 c 0.24625,2.11862 0.8885,3.65362 1.93087,4.60687 1.0415,0.95313 2.387,1.43138 4.03,1.43138 0.8835,0 1.64125,-0.10625 2.27413,-0.3185 0.63712,-0.209 1.20125,-0.44863 1.69987,-0.7085 0.49775,-0.26 0.954,-0.49613 1.36513,-0.7085 0.41962,-0.2115 0.85287,-0.31688 1.309,-0.31688 0.60237,0 1.06025,0.21913 1.3695,0.65838 l 2.19937,2.71412 c -0.78325,0.89625 -1.62525,1.62513 -2.52987,2.1875 -0.90563,0.5615 -1.83413,0.99988 -2.7855,1.31675 -0.95225,0.31863 -1.90713,0.53775 -2.85938,0.66088 -0.95487,0.12237 -1.86212,0.18262 -2.72525,0.18262 -1.77712,0 -3.44125,-0.288 -4.9985,-0.86737 -1.55625,-0.5785 -2.91712,-1.43738 -4.08262,-2.57825 -1.16388,-1.14 -2.0855,-2.55775 -2.76,-4.25425 -0.67625,-1.693 -1.01438,-3.66388 -1.01438,-5.91338 0,-1.69475 0.28713,-3.30125 0.8665,-4.81412 0.5785,-1.5155 1.4085,-2.84325 2.495,-3.98325 1.08225,-1.14175 2.39388,-2.044 3.93488,-2.71325 1.54437,-0.66863 3.28162,-1.00175 5.22187,-1.00175"
         id="path3097"
         style="fill:#003f18;fill-opacity:1;fill-rule:nonzero;stroke:none" />
      <path
         d="m 810.52327,775.38167 c -1.24787,-1.8095 -4.19812,-1.74925 -5.83775,-0.78663 -5.306,3.11088 -7.44075,10.05888 -7.5835,10.10388 l 10e-4,0.005 c 0.0926,-0.12075 7.321,0.32525 12.09525,-3.5595 1.47638,-1.20288 2.5705,-3.95438 1.32425,-5.762"
         id="path3099"
         style="fill:#003f18;fill-opacity:1;fill-rule:nonzero;stroke:none" />
    </g>
  </g>
</svg>
