<?xml version="1.0" encoding="UTF-8" standalone="no"?>
<svg
   width="106.68946"
   height="73.2071"
   viewBox="0 0 106.68946 73.2071"
   version="1.1"
   id="svg26"
   sodipodi:docname="pcf.svg"
   inkscape:version="1.1.2 (b8e25be833, 2022-02-05)"
   xmlns:inkscape="http://www.inkscape.org/namespaces/inkscape"
   xmlns:sodipodi="http://sodipodi.sourceforge.net/DTD/sodipodi-0.dtd"
   xmlns="http://www.w3.org/2000/svg"
   xmlns:svg="http://www.w3.org/2000/svg">
  <sodipodi:namedview
     id="namedview28"
     pagecolor="#505050"
     bordercolor="#eeeeee"
     borderopacity="1"
     inkscape:pageshadow="0"
     inkscape:pageopacity="0"
     inkscape:pagecheckerboard="0"
     showgrid="false"
     fit-margin-top="0"
     fit-margin-left="0"
     fit-margin-right="0"
     fit-margin-bottom="0"
     inkscape:zoom="4.0852273"
     inkscape:cx="28.884562"
     inkscape:cy="82.002782"
     inkscape:window-width="1920"
     inkscape:window-height="1017"
     inkscape:window-x="-8"
     inkscape:window-y="-8"
     inkscape:window-maximized="1"
     inkscape:current-layer="svg26"
     inkscape:showpageshadow="2"
     inkscape:deskcolor="#d1d1d1" />
  <defs
     id="defs4">
    <linearGradient
       id="swatch1"
       inkscape:swatch="solid">
      <stop
         style="stop-color:#ff5252;stop-opacity:0.98431402;"
         offset="0"
         id="stop1" />
    </linearGradient>
  </defs>
  <path
     id="path11"
     mask="url(#b)"
     style="fill-opacity:0.984314;fill-rule:evenodd"
     fill="currentColor"
     d="m 40.773439,0.00188089 c -5.08987,-0.0847 -8.199219,2.71485001 -8.199219,2.71485001 -6.725994,5.11999 -4.621094,13.9277301 -4.621094,13.9277301 0.984999,5.56 4.740234,9.21094 4.740234,9.21094 6.681994,6.41199 14.199219,6.08594 14.199219,6.08594 l -8.923828,8.52539 2.277344,13.03515 -11.917969,-6.16015 -11.939453,6.16015 2.28125,-13.03515 -9.6523441,-9.23633 13.3144531,-1.89063 3.404297,-6.56445 c -1.408998,-2.515 -1.800781,-5.60156 -1.800781,-5.60156 L 19.582032,25.562431 8.861719e-7,28.353451 14.158204,41.902271 l -3.341797,19.13086 17.5,-9.03125 17.501953,9.03516 -3.341796,-19.13477 15.388671,-14.9707 c -13.956986,3.711 -20.919921,-2.66601 -20.919921,-2.66601 -5.368995,-4.407 -5.1875,-10.44336 -5.1875,-10.44336 12.317987,-2.083 11.314453,-13.59180011 11.314453,-13.59180011 -0.80475,-0.14638 -1.571704,-0.21642 -2.298828,-0.22852 z M 38.195314,4.4491509 c 0,0 -1.219349,3.76113 -5.652344,4.95312 0,0 1.265348,-3.65912 5.652344,-4.95312 z M 82.660153,41.831961 c -6.11499,0 -10.570308,3.94048 -10.570308,10.10547 0,6.16599 4.455318,10.10352 10.570308,10.10352 2.685,0 5.45099,-1.05985 7.08399,-3.33985 l -3.59766,-2.63476 c -0.884,1.303 -2.29506,2.06445 -4.03906,2.06445 -3.126,0 -5.5332,-2.60736 -5.5332,-6.19336 0,-3.585 2.40687,-6.19336 5.67187,-6.19336 1.605,0 2.84903,0.57017 3.70703,1.57617 l 3.32032,-2.66406 c -1.66,-2.091 -4.42629,-2.82422 -6.61329,-2.82422 z m -27.226558,0.48828 v 19.23242 h 4.314453 v -7.49804 h 3.15625 c 4.122996,0 7.25,-1.38554 7.25,-5.89453 0,-4.563 -3.374364,-5.83985 -7.443359,-5.83985 z m 37.105468,0.002 v 19.23046 h 4.31641 v -7.49804 h 8.164057 v -3.91016 h -8.164057 v -3.91211 h 8.828117 v -3.91015 z m -32.791015,3.58398 h 2.216797 c 1.659998,0 3.707031,0.27091 3.707031,2.25391 0,1.79299 -1.52097,2.31054 -3.042969,2.31054 h -2.880859 z m 4.091797,22.33789 c -0.728,0 -1.41211,0.40564 -1.41211,1.18164 0,1.213 1.736329,0.85349 1.736329,1.52149 0,0.258 -0.296454,0.3789 -0.564454,0.3789 a 0.917,0.917 0 0 1 -0.71289,-0.34179 l -0.580078,0.625 c 0.349999,0.32 0.771094,0.45703 1.246093,0.45703 0.765,0 1.427735,-0.38527 1.427735,-1.19727 0,-1.274 -1.705078,-0.84577 -1.705078,-1.50976 0,-0.273 0.318828,-0.375 0.548828,-0.375 0.199,0 0.46175,0.0772 0.59375,0.24218 l 0.558594,-0.59961 v -0.002 c -0.314,-0.273 -0.71672,-0.38086 -1.136719,-0.38086 z m -31.552735,0.002 c -1.157998,0 -2,0.74516 -2,1.91016 0,1.168 0.842002,1.91211 2,1.91211 0.507,0 1.032798,-0.19886 1.341797,-0.63086 l -0.68164,-0.49805 a 0.892,0.892 0 0 1 -0.765625,0.38868 c -0.591,0 -1.046875,-0.49193 -1.046875,-1.16993 0,-0.678 0.456219,-1.17187 1.074218,-1.17187 0.304,0 0.539172,0.10687 0.701172,0.29687 l 0.626953,-0.50195 0.002,-0.002 c -0.315,-0.396 -0.838954,-0.53321 -1.251954,-0.53321 z m 4.240235,0 c -1.155999,0 -1.998047,0.74516 -1.998047,1.91016 0,1.167 0.843001,1.91016 2,1.91016 1.156999,0 1.998047,-0.74316 1.998047,-1.91016 0,-1.166 -0.842001,-1.91016 -2,-1.91016 z m 58.587888,0 c -1.158,0 -2,0.74516 -2,1.91016 0,1.01903 0.6417,1.71592 1.57422,1.87695 l 0.0391,-0.0586 h 0.34961 l -0.0586,0.0859 c 0.0326,0.001 0.0626,0.008 0.0957,0.008 0.507,0 1.03085,-0.19886 1.33985,-0.63086 l -0.67969,-0.49805 a 0.892,0.892 0 0 1 -0.76563,0.38868 c -0.59,0 -1.04492,-0.49193 -1.04492,-1.16993 0,-0.678 0.45327,-1.17187 1.07227,-1.17187 0.303,0 0.53917,0.10687 0.70117,0.29687 l 0.62695,-0.50195 v -0.002 c -0.312,-0.396 -0.837,-0.53321 -1.25,-0.53321 z m -0.0957,3.81446 c -0.11271,-0.004 -0.22436,-0.009 -0.33008,-0.0273 l -0.28711,0.41993 0.16992,0.14843 a 0.48,0.48 0 0 1 0.1875,-0.041 c 0.105,0 0.26172,0.0508 0.26172,0.17383 0,0.134 -0.1837,0.16601 -0.3457,0.16601 -0.178,0 -0.31935,-0.0559 -0.40234,-0.0879 l -0.13086,0.24219 c 0.184,0.086 0.44429,0.15234 0.65429,0.15234 0.266,0 0.72657,-0.12109 0.72657,-0.49609 0,-0.38 -0.35021,-0.42774 -0.65821,-0.42774 z m 10.529297,-3.81446 c -0.728,0 -1.41211,0.40565 -1.41211,1.18164 0,1.213 1.73632,0.85154 1.73632,1.51954 0,0.258 -0.29845,0.38086 -0.56445,0.38086 a 0.916,0.916 0 0 1 -0.71289,-0.34375 l -0.58008,0.625 c 0.35,0.32 0.7691,0.45898 1.2461,0.45898 0.765,0 1.42773,-0.38527 1.42773,-1.19727 0,-1.27399 -1.70703,-0.84772 -1.70703,-1.51171 0,-0.273 0.32078,-0.375 0.55078,-0.375 0.2,0 0.45984,0.0772 0.58984,0.24218 l 0.56055,-0.59961 c -0.314,-0.273 -0.71676,-0.38086 -1.13476,-0.38086 z m -95.083985,0.0918 v 3.63867 h 0.814453 v -1.41992 h 0.597656 c 0.779999,0 1.371094,-0.26223 1.371094,-1.11523 0,-0.862 -0.638204,-1.10352 -1.408203,-1.10352 z m 4.689453,0 -1.59961,3.63867 h 0.898438 l 0.308594,-0.77148 h 1.439453 l 0.320312,0.77148 h 0.919922 l -1.611328,-3.63867 z m 3.314453,0 v 3.63672 h 0.814453 v -1.45313 h 0.404297 l 0.775391,1.45508 h 0.978515 l -0.941406,-1.53711 c 0.521999,-0.092 0.798828,-0.48904 0.798828,-0.99804 0,-0.846 -0.637485,-1.10352 -1.396484,-1.10352 z m 7.601562,0 v 3.63672 h 0.816407 v -3.63672 z m 13.666016,0 v 3.63867 h 0.816406 v -2.79101 h 0.01172 l 0.9375,2.79101 h 0.621094 l 0.974609,-2.79101 h 0.0098 v 2.79101 h 0.816406 v -3.63867 h -1.230469 l -0.857421,2.37305 h -0.01172 l -0.853516,-2.37305 z m 5.59375,0 v 3.63867 h 0.002 0.816407 v -2.79101 h 0.01172 l 0.9375,2.79101 H 47.7188 l 0.974609,-2.79101 h 0.0098 v 2.79101 h 0.816406 v -3.63867 h -1.230468 l -0.857422,2.37305 h -0.0098 l -0.855469,-2.37305 z m 5.597656,0 v 2.23438 c 0,0.859 0.533455,1.49414 1.564454,1.49414 1.026998,0 1.560546,-0.63514 1.560546,-1.49414 v -2.23438 h -0.002 -0.814453 v 2.20508 c 0,0.447 -0.314141,0.78516 -0.74414,0.78516 -0.434,0 -0.75,-0.33816 -0.75,-0.78516 v -2.20508 z m 4.533204,0 v 3.63672 h 0.814453 v -2.58984 h 0.01172 l 1.617188,2.58984 h 1.068359 v -3.63672 h -0.816406 v 2.5293 h -0.0098 l -1.576171,-2.5293 z m 4.910156,0 v 3.63672 h 0.816406 v -3.63672 z m 9.5625,0 v 3.63672 h 2.611328 v -0.74023 h -1.794922 v -0.74415 h 1.605469 v -0.74023 h -1.605469 v -0.67383 h 1.699219 v -0.73828 z m 6.154298,0 v 3.63867 l 0.002,-0.002 h 0.81445 v -1.41797 h 1.54493 v -0.74023 h -1.54493 v -0.74024 h 1.66993 v -0.73828 z m 3.72851,0 v 3.63672 h 0.81641 v -1.45313 h 0.40234 l 0.77539,1.45508 h 0.97852 l -0.94141,-1.53711 c 0.523,-0.092 0.79883,-0.48904 0.79883,-0.99804 0,-0.846 -0.63748,-1.10352 -1.39648,-1.10352 z m 5.26368,0 -1.59961,3.63672 h 0.90039 l 0.30859,-0.76953 h 1.43945 l 0.31836,0.76953 h 0.92188 l -1.61328,-3.63672 z m 3.31445,0 v 3.63672 h 0.81641 v -2.58984 h 0.01 l 1.61914,2.58984 h 1.06641 v -3.63672 h -0.81446 v 2.5293 h -0.0117 l -1.57618,-2.5293 z m 10.37891,0 -1.59961,3.63672 v 0.002 h 0.90039 l 0.30664,-0.77148 h 1.43945 l 0.320307,0.77148 h 0.92188 l -1.613277,-3.63867 z m 3.302727,0 v 3.63867 h 0.81641 v -3.63867 z m -79.996091,0.002 v 0.70899 h 1.058594 v 2.92578 h 0.816406 v -2.92969 h 1.056641 v -0.70508 z m 43.822266,0 v 0.70899 h 1.058594 v 2.92578 h 0.814453 v -2.92969 h 1.05664 v -0.70508 z m -29.373047,0.64454 c 0.695999,0 1.152344,0.49387 1.152344,1.17187 0,0.678 -0.456345,1.17188 -1.152344,1.17188 -0.696999,0 -1.152344,-0.49388 -1.152344,-1.17188 0,-0.678 0.455345,-1.17187 1.152344,-1.17187 z m -25.25,0.0312 h 0.419922 c 0.313999,0 0.701172,0.0518 0.701172,0.42578 0,0.34 -0.287173,0.43945 -0.576172,0.43945 h -0.544922 z m 8.003906,0 h 0.535156 c 0.299,0 0.632813,0.0549 0.632813,0.42187 0,0.395 -0.387547,0.4043 -0.685547,0.4043 h -0.482422 v -0.82422 z m 61.349609,0 h 0.5332 c 0.298,0 0.63477,0.0549 0.63477,0.42187 0,0.395 -0.3875,0.4043 -0.6875,0.4043 h -0.48047 v -0.82422 z m -65.164062,0.38085 0.455078,1.12891 v 0.002 h -0.90625 z m 69.927732,0 0.45313,1.12891 v 0.002 h -0.9043 z m 13.69336,0 0.45313,1.13086 h -0.9043 z" />
</svg>
