<?xml version="1.0" encoding="UTF-8" standalone="no"?>
<!-- Created with Inkscape (http://www.inkscape.org/) -->

<svg
   width="187.50026mm"
   height="100.22536mm"
   viewBox="0 0 187.50026 100.22536"
   version="1.1"
   id="svg1"
   xmlns:inkscape="http://www.inkscape.org/namespaces/inkscape"
   xmlns:sodipodi="http://sodipodi.sourceforge.net/DTD/sodipodi-0.dtd"
   xmlns="http://www.w3.org/2000/svg"
   xmlns:svg="http://www.w3.org/2000/svg">
  <sodipodi:namedview
     id="namedview1"
     pagecolor="#ffffff"
     bordercolor="#000000"
     borderopacity="0.25"
     inkscape:showpageshadow="2"
     inkscape:pageopacity="0.0"
     inkscape:pagecheckerboard="0"
     inkscape:deskcolor="#d1d1d1"
     inkscape:document-units="mm" />
  <defs
     id="defs1" />
  <g
     inkscape:label="Calque 1"
     inkscape:groupmode="layer"
     id="layer1"
     transform="translate(-11.249869,-10.804779)">
    <path
       d="m 60.407187,10.804779 c 0.0457,0.1748 -3.775358,5.99938 -4.596619,13.09377 -3.219178,-6.66011 -8.91332,-11.13054 -8.930725,-11.313 l -0.0056,-0.002 c 0.104833,0.15943 -1.602909,7.38306 0.223237,14.70247 -7.379774,-7.26334 -18.53319,-9.187 -18.65428,-9.4105 l -0.0067,0.004 c 0.226753,0.13094 1.860286,11.80148 9.347749,19.37349 -12.169808,-3.73902 -25.502116,0.88181 -25.77155,0.73536 l -0.0049,0.006 c 0.269113,-0.002 7.36171,7.78616 17.384987,11.48767 -10.175129,2.87567 -17.881051,9.89529 -18.141017,9.87845 l -0.0019,0.008 c 0.256428,-0.11455 11.049618,4.34214 22.340237,2.76521 -10.851386,7.25803 -15.884772,20.75574 -16.176792,20.87263 l 0.0019,0.008 c 0.180632,-0.2219 11.710646,-0.7982 21.429181,-6.85488 -4.91326,9.88622 -4.765663,20.90079 -4.951637,21.09897 l 0.0049,0.004 c 0.08816,-0.29274 12.035958,-6.85542 17.715197,-18.18649 0.0533,-0.10641 0.100828,-0.22092 0.151416,-0.33125 -1.074272,9.68726 3.871351,19.03624 3.7915,19.2593 l 0.0043,0.002 c -0.03798,-0.23649 6.561603,-8.4136 7.287411,-18.14876 1.847969,3.19849 4.331731,5.31707 4.322217,5.41569 l 0.0049,0.001 c -0.07187,-0.13016 3.198153,-6.47634 1.54719,-12.2747 -0.511582,-1.79215 -2.586275,-3.83879 -4.728903,-3.41065 h -5.29e-4 c -1.565741,0.31312 -2.581336,1.83349 -2.925405,3.3507 -0.786262,-1.04073 -1.796677,-1.78276 -2.98845,-1.90634 l 5.29e-4,-5.3e-4 c -2.160365,-0.22274 -4.116007,1.65404 -5.245156,3.87367 0.353957,-2.81233 -0.176056,-5.661 -2.124421,-6.81819 l 5.29e-4,-0.002 c -1.285809,-0.76333 -2.902617,-0.61896 -4.497396,0.0511 0.785538,-2.16518 0.873845,-4.41958 -0.31316,-6.06784 v -0.002 c -1.167551,-1.62043 -3.264998,-2.23963 -5.501992,-2.17559 2.474513,-1.6063 4.416004,-4.03061 4.00699,-6.47143 l 0.0019,-0.002 c -0.240265,-1.42822 -1.242965,-2.56737 -2.600357,-3.40134 1.689098,-0.78607 3.020253,-1.99439 3.449402,-3.62458 h 0.0013 c 0.544791,-2.07765 -0.530249,-4.24909 -2.240177,-5.98103 2.260841,0.58111 4.687028,0.40951 6.267837,-1.11002 l 0.0019,10e-4 c 1.372883,-1.32153 1.745064,-3.31138 1.486215,-5.29632 1.267076,1.02872 2.756101,1.61222 4.085021,1.15858 l 0.0019,0.002 c 1.230161,-0.42046 2.009605,-1.62091 2.392614,-3.04995 0.83734,1.16817 1.956924,2.007 3.234425,2.01487 l 0.0019,0.002 c 1.396212,0.009 2.596354,-0.97791 3.4432,-2.30684 0.279945,1.48379 1.041929,2.8569 2.374532,3.45043 l 5.3e-4,0.002 c 1.661115,0.73915 3.618243,0.006 5.031213,-1.20561 -0.947706,1.34667 -1.315725,3.67851 -0.03051,4.96714 v 5.3e-4 c 1.375047,1.37666 3.939301,0.85569 5.214151,-0.24392 4.13049,-3.55868 4.88215,-9.95352 5.00073,-10.01644 l -0.003,-0.003 c -0.0571,0.10976 -5.47125,0.76814 -9.091951,4.11552 0.148096,-0.20554 0.283761,-0.414 0.395322,-0.62426 3.575359,-6.72851 1.520139,-15.37517 1.639179,-15.51636 l -0.002,-0.002 c -0.0208,0.16231 -6.035587,3.50618 -9.208745,9.21391 -0.277344,-7.97163 -4.887098,-14.96727 -4.83865,-15.15628 z m 33.571594,13.25397 c -1.20885,0 -2.29186,0.20877 -3.25097,0.62425 -0.95848,0.41602 -1.77637,0.98111 -2.45101,1.69034 -0.67579,0.71091 -1.19291,1.53767 -1.55288,2.4815 -0.35982,0.94328 -0.54053,1.94379 -0.54053,2.99878 0,1.40084 0.21171,2.629 0.63251,3.68453 0.42019,1.05615 0.99368,1.93908 1.7198,2.64945 0.72667,0.7103 1.57295,1.24672 2.54248,1.60508 0.96953,0.36152 2.00762,0.54208 3.11402,0.54208 0.53777,0 1.10263,-0.0376 1.69706,-0.11317 0.59388,-0.0771 1.18791,-0.2147 1.7818,-0.41187 0.59281,-0.19786 1.17185,-0.47277 1.73478,-0.82217 0.56347,-0.35102 1.088719,-0.80403 1.575609,-1.3627 l -1.369939,-1.69086 c -0.19307,-0.2749 -0.47704,-0.41082 -0.85214,-0.41082 -0.2844,0 -0.55628,0.0657 -0.81443,0.19791 -0.25915,0.13232 -0.54415,0.27921 -0.85317,0.44133 -0.31003,0.16312 -0.66229,0.30968 -1.05885,0.44131 -0.3951,0.13224 -0.86616,0.19792 -1.41542,0.19792 -1.02512,0 -1.86255,-0.29542 -2.51148,-0.89038 -0.64954,-0.59443 -1.05033,-1.55109 -1.20303,-2.87063 h 9.104879 c 0.21298,0 0.38754,-0.0251 0.52503,-0.0749 0.13641,-0.0514 0.24582,-0.14268 0.32711,-0.27492 0.0813,-0.1317 0.13693,-0.31033 0.16744,-0.53226 0.0293,-0.22403 0.046,-0.51298 0.046,-0.86972 0,-1.13643 -0.17505,-2.1533 -0.52607,-3.0515 -0.3494,-0.89758 -0.835999,-1.65623 -1.460379,-2.27583 -0.62484,-0.61959 -1.37091,-1.09071 -2.23862,-1.41541 -0.86779,-0.32377 -1.82402,-0.48731 -2.8696,-0.48731 z m 29.645219,2.7125 c -0.70559,0 -1.35738,0.21368 -1.95389,0.64337 -0.59442,0.42767 -1.13381,1.01208 -1.61282,1.7508 l -0.21394,-1.22164 c -0.0346,-0.16837 -0.0737,-0.31033 -0.12041,-0.42891 -0.0451,-0.11587 -0.11342,-0.21176 -0.2005,-0.28371 -0.0876,-0.0718 -0.19753,-0.12251 -0.32815,-0.15709 -0.13007,-0.0335 -0.29166,-0.0496 -0.48472,-0.0496 h -2.31976 v 13.0638 h 3.90674 v -8.01192 c 0.58709,-1.09227 1.39381,-1.63814 2.42001,-1.63814 0.29273,0 0.53663,0.0175 0.7307,0.0553 0.19254,0.0383 0.36175,0.0574 0.50333,0.0574 0.1679,0 0.30236,-0.0362 0.40411,-0.10697 0.10129,-0.0713 0.16742,-0.1959 0.20102,-0.37207 l 0.50385,-2.87166 c -0.36152,-0.28594 -0.84007,-0.42891 -1.43557,-0.42891 z m 23.71845,0.002 c -0.45386,0 -0.87221,0.0456 -1.25419,0.13798 -0.3819,0.0929 -0.73917,0.22076 -1.07074,0.3855 -0.33265,0.1632 -0.64265,0.35894 -0.93276,0.58498 -0.29011,0.22619 -0.55996,0.48005 -0.81287,0.75602 l -0.2899,-0.95756 c -0.0666,-0.21823 -0.18198,-0.38338 -0.34572,-0.49092 -0.16466,-0.10862 -0.36784,-0.16382 -0.61133,-0.16382 h -2.41845 v 17.20981 l -0.001,0.002 h 3.90519 v -5.0152 c 0.37881,0.32794 0.79924,0.58835 1.26142,0.78135 0.46219,0.19407 1.03263,0.2899 1.7136,0.2899 0.83157,0 1.58906,-0.17313 2.27428,-0.51728 0.68459,-0.34361 1.2727,-0.82336 1.76268,-1.43609 0.49052,-0.61287 0.87329,-1.33583 1.14773,-2.16679 0.27228,-0.83112 0.40876,-1.73922 0.40876,-2.7218 0,-1.04989 -0.11883,-1.98849 -0.35915,-2.81636 -0.23916,-0.82742 -0.56938,-1.52621 -0.98857,-2.09755 -0.42181,-0.57135 -0.92092,-1.00891 -1.50068,-1.31052 -0.57868,-0.30169 -1.20783,-0.4532 -1.88826,-0.4532 z m 12.28968,0.0502 c -0.9994,0 -1.89553,0.17203 -2.68665,0.51779 -0.79329,0.34477 -1.46957,0.81028 -2.02779,1.39837 -0.5603,0.58817 -0.9877,1.27138 -1.28622,2.05362 -0.29853,0.78117 -0.44804,1.60858 -0.44804,2.48254 0,1.15897 0.1746,2.17598 0.524,3.04994 0.34832,0.87303 0.82249,1.60298 1.42317,2.19108 0.59968,0.58771 1.30055,1.03064 2.10426,1.32963 0.80109,0.29753 1.66052,0.44649 2.57556,0.44649 0.44643,0 0.91454,-0.0316 1.4056,-0.0956 0.49267,-0.0635 0.98169,-0.1748 1.47329,-0.339 0.49106,-0.16366 0.97023,-0.39101 1.43713,-0.68058 0.46742,-0.29065 0.90197,-0.66647 1.30379,-1.12758 l -1.13378,-1.39888 c -0.15995,-0.22712 -0.39428,-0.34158 -0.70539,-0.34158 -0.23561,0 -0.4603,0.0557 -0.67437,0.16433 -0.21407,0.10916 -0.4504,0.23059 -0.70539,0.36484 -0.25707,0.1354 -0.54854,0.25676 -0.87695,0.36638 -0.32577,0.10968 -0.71814,0.16381 -1.17098,0.16381 -0.84887,0 -1.5417,-0.24473 -2.07946,-0.73587 -0.53776,-0.4916 -0.86933,-1.28328 -0.99632,-2.37556 h 7.53597 c 0.17579,0 0.32086,-0.0211 0.43356,-0.0625 0.11496,-0.0425 0.20412,-0.11873 0.27182,-0.22789 0.0666,-0.10909 0.11277,-0.25609 0.13902,-0.44028 0.0241,-0.18574 0.0367,-0.42498 0.0367,-0.71934 0,-0.93958 -0.14438,-1.78253 -0.43511,-2.52595 -0.29057,-0.74342 -0.69347,-1.37098 -1.21078,-1.88412 -0.51568,-0.51151 -1.13335,-0.90188 -1.85105,-1.17099 -0.71818,-0.26919 -1.5094,-0.40307 -2.37557,-0.40307 z m -27.94403,5.3e-4 c -0.9984,0 -1.90956,0.15395 -2.72748,0.4656 -0.81838,0.31057 -1.52638,0.75664 -2.11718,1.33532 -0.59181,0.58022 -1.05035,1.28265 -1.37305,2.11098 -0.32469,0.82733 -0.4842,1.75599 -0.4842,2.79053 0,1.0414 0.15951,1.97902 0.4842,2.81584 0.3227,0.83521 0.78124,1.54569 1.37305,2.12908 0.5908,0.58338 1.29772,1.03244 2.11718,1.34772 0.81792,0.31527 1.72908,0.4718 2.72748,0.4718 0.99099,0 1.89468,-0.15653 2.70888,-0.4718 0.81483,-0.3142 1.51362,-0.7638 2.09755,-1.34772 0.58238,-0.58339 1.037,-1.29387 1.36116,-2.12908 0.32268,-0.83682 0.48472,-1.77444 0.48472,-2.81584 0,-1.03353 -0.16204,-1.9632 -0.48472,-2.79053 -0.32316,-0.82833 -0.77832,-1.53184 -1.36116,-2.11098 -0.58393,-0.57868 -1.28272,-1.02421 -2.09755,-1.33532 -0.81529,-0.31165 -1.71788,-0.4656 -2.70888,-0.4656 z m -29.17496,0.19998 v 8.28993 c 0,0.72204 0.0963,1.38509 0.28939,1.9911 0.19307,0.60485 0.47907,1.13028 0.85679,1.5751 0.37781,0.44543 0.8418,0.79156 1.39269,1.03921 0.5498,0.24811 1.18254,0.37207 1.896,0.37207 0.42081,0 0.80711,-0.0397 1.16014,-0.11937 0.35156,-0.0807 0.68219,-0.18906 0.98805,-0.32763 0.3064,-0.13903 0.59438,-0.30666 0.86403,-0.50437 0.2692,-0.19677 0.53001,-0.41704 0.78083,-0.66145 l 0.23978,0.75654 c 0.15216,0.43655 0.47021,0.65474 0.95756,0.65474 h 2.42001 v -13.06485 h -3.90777 v 9.31055 c -0.35311,0.31952 -0.71792,0.5664 -1.0914,0.7431 -0.37249,0.17687 -0.77332,0.2651 -1.202,0.2651 -0.57135,0 -1.00383,-0.1766 -1.29656,-0.52916 -0.2959,-0.35257 -0.44235,-0.85332 -0.44235,-1.50017 v -8.28974 z m -8.443409,0.293 c 0.50735,0 0.9393,0.0863 1.29294,0.25942 0.35511,0.17154 0.64217,0.39836 0.86041,0.67696 0.21878,0.27915 0.37635,0.59677 0.47285,0.95189 0.096,0.3541 0.14469,0.72035 0.14469,1.09553 h -5.89163 c 0.16211,-0.96328 0.49666,-1.70385 1.00563,-2.21536 0.50726,-0.51206 1.2122,-0.76844 2.11511,-0.76844 z m 65.638369,2.20194 c 0.42026,0 0.77641,0.0723 1.07177,0.21446 0.29381,0.14266 0.53223,0.33084 0.7121,0.5612 0.18211,0.23082 0.31145,0.49275 0.39119,0.78703 0.0803,0.2939 0.11937,0.59636 0.11937,0.90692 h -4.87567 c 0.13432,-0.79745 0.4102,-1.40896 0.83148,-1.83347 0.41864,-0.42382 1.00217,-0.63614 1.74976,-0.63614 z m -28.02,0.20205 c 0.89813,0 1.5605,0.31508 1.98386,0.94516 0.42498,0.6301 0.63666,1.59188 0.63666,2.8851 0,1.29384 -0.21276,2.2581 -0.63666,2.89181 -0.42336,0.63435 -1.08412,0.95137 -1.98386,0.95137 -0.92445,0 -1.59966,-0.31702 -2.02881,-0.95137 -0.42922,-0.63371 -0.64286,-1.59797 -0.64286,-2.89181 0,-1.29322 0.21263,-2.255 0.64286,-2.8851 0.42915,-0.63008 1.10436,-0.94516 2.02881,-0.94516 z m 14.29319,0.0377 c 0.31003,0 0.5925,0.0611 0.84439,0.18758 0.25283,0.12645 0.46962,0.3337 0.64957,0.62374 0.17995,0.29073 0.32096,0.67093 0.42116,1.14153 0.10075,0.47006 0.1509,1.05002 0.1509,1.7384 0,0.72296 -0.0627,1.33555 -0.18914,1.84019 -0.12482,0.50419 -0.29847,0.91249 -0.52296,1.22784 -0.22087,0.3142 -0.48487,0.54352 -0.78548,0.68626 -0.30431,0.14428 -0.63591,0.21549 -0.99736,0.21549 -0.37672,0 -0.73896,-0.0652 -1.08365,-0.19585 -0.34469,-0.13008 -0.66265,-0.35833 -0.95808,-0.68626 v -5.54386 c 0.16898,-0.20142 0.33752,-0.37959 0.50488,-0.53537 0.16791,-0.15632 0.35105,-0.28378 0.54828,-0.38344 0.19725,-0.10283 0.41144,-0.1801 0.64234,-0.23513 0.23237,-0.053 0.48866,-0.0811 0.77515,-0.0811 z m -83.266753,7.25329 c -0.597051,-0.003 -1.195121,0.15022 -1.638142,0.41032 -3.276909,1.92123 -4.595278,6.21213 -4.683437,6.23992 l 5.29e-4,0.003 c 0.05719,-0.0746 4.521322,0.20085 7.469825,-2.19832 0.911792,-0.74288 1.587709,-2.44207 0.818042,-3.55843 l 5.29e-4,-5.3e-4 c -0.433501,-0.62861 -1.199684,-0.89186 -1.967325,-0.89607 z m 84.706453,4.93355 c -0.3819,0 -0.73971,0.0697 -1.07073,0.21084 -0.33211,0.14113 -0.62714,0.33737 -0.88367,0.58911 -0.25599,0.25136 -0.45724,0.54236 -0.60307,0.87385 -0.14482,0.33211 -0.2191,0.69036 -0.2191,1.0728 0,0.37194 0.0737,0.7222 0.2191,1.04852 0.14583,0.32732 0.34708,0.6133 0.60307,0.86041 0.25653,0.24657 0.55156,0.44233 0.88367,0.58808 0.33102,0.14645 0.68829,0.21859 1.07073,0.21859 0.39294,0 0.76376,-0.0721 1.11053,-0.21859 0.34686,-0.14575 0.65134,-0.34043 0.91312,-0.58808 0.26131,-0.24711 0.46695,-0.53355 0.61857,-0.86041 0.15108,-0.32632 0.22634,-0.67596 0.22634,-1.04852 0,-0.38244 -0.0753,-0.74069 -0.22634,-1.0728 -0.15162,-0.33149 -0.35726,-0.62249 -0.61857,-0.87385 -0.26178,-0.25228 -0.56526,-0.44845 -0.91312,-0.58911 -0.34785,-0.14111 -0.71759,-0.21084 -1.11053,-0.21084 z m -43.91256,0.0899 v 22.59397 h 4.67982 v -22.59411 z m -42.825806,2.72851 c -1.496801,0 -2.839876,0.25691 -4.029731,0.77205 -1.188315,0.51676 -2.201278,1.2146 -3.037028,2.09496 -0.835742,0.87983 -1.478513,1.90535 -1.924947,3.07475 -0.446513,1.16994 -0.668689,2.40966 -0.668689,3.71709 0,1.73495 0.260884,3.25769 0.782899,4.56458 0.521547,1.30843 1.232374,2.40372 2.131648,3.28455 0.899205,0.87983 1.949304,1.54357 3.1502,1.98955 1.201428,0.44651 2.487253,0.67024 3.858678,0.67024 0.666837,0 1.367668,-0.0462 2.10375,-0.14108 0.735539,-0.0945 1.471578,-0.26401 2.20658,-0.51005 0.736086,-0.24448 1.45293,-0.58466 2.151811,-1.01905 0.698249,-0.43393 1.34846,-0.99735 1.95285,-1.68828 l -1.698091,-2.09496 c -0.239241,-0.34044 -0.591431,-0.50952 -1.056782,-0.50952 -0.353031,0 -0.688714,0.0818 -1.00924,0.24546 -0.32107,0.16319 -0.672743,0.34584 -1.056265,0.54725 -0.383981,0.20103 -0.820949,0.3836 -1.311547,0.54726 -0.490516,0.16311 -1.074018,0.24494 -1.753902,0.24494 -1.270219,0 -2.308169,-0.36881 -3.113503,-1.10381 -0.804793,-0.73554 -1.301493,-1.92109 -1.489313,-3.55637 h 11.282516 c 0.263401,0 0.480642,-0.0306 0.650089,-0.0935 0.16999,-0.0631 0.304451,-0.17629 0.405662,-0.34003 0.100203,-0.16312 0.169939,-0.383 0.207735,-0.65991 0.03829,-0.2766 0.05583,-0.63518 0.05583,-1.0759 0,-1.40864 -0.216234,-2.66835 -0.65009,-3.78271 -0.434395,-1.11227 -1.038434,-2.05241 -1.81126,-2.81999 -0.773835,-0.76696 -1.69849,-1.35193 -2.773474,-1.75545 -1.075526,-0.40235 -2.261068,-0.60203 -3.556368,-0.60203 z m 73.845096,3.94292 c -0.91603,0 -1.76744,0.1174 -2.55023,0.35501 -0.78379,0.23662 -1.46618,0.57226 -2.04432,1.01028 -0.57922,0.43756 -1.03476,0.97135 -1.36632,1.5999 -0.33257,0.62847 -0.49868,1.33551 -0.49868,2.11977 0,0.94698 0.23433,1.7762 0.70176,2.49029 0.46852,0.71509 1.11023,1.28908 1.92443,1.7203 -0.36198,0.17262 -0.6741,0.36928 -0.93534,0.59015 -0.26185,0.21986 -0.4775,0.45316 -0.64957,0.69556 -0.16952,0.24079 -0.29597,0.48909 -0.37672,0.74569 -0.0808,0.25707 -0.11886,0.50141 -0.11886,0.73277 0,0.55352 0.10479,1.01102 0.31523,1.37408 0.21082,0.36199 0.49289,0.65753 0.84491,0.88936 -0.734,0.2718 -1.31289,0.646 -1.73633,1.12447 -0.42073,0.47794 -0.63252,1.06286 -0.63252,1.75803 0,0.53252 0.14042,1.04682 0.4222,1.53996 0.28223,0.49214 0.71723,0.9288 1.30586,1.30483 0.58918,0.37727 1.32814,0.68073 2.21847,0.91364 0.89025,0.23036 1.94884,0.34727 3.17707,0.34727 1.24759,0 2.35488,-0.15899 3.32124,-0.47543 0.96583,-0.31898 1.78116,-0.73894 2.4443,-1.26141 0.66475,-0.52356 1.16846,-1.12157 1.50998,-1.79628 0.34206,-0.67363 0.51418,-1.36311 0.51418,-2.06654 0,-0.75508 -0.13846,-1.37611 -0.41599,-1.865 -0.27653,-0.48743 -0.64125,-0.87827 -1.09348,-1.16892 -0.45377,-0.29274 -0.97205,-0.50289 -1.55597,-0.63459 -0.58285,-0.13008 -1.1769,-0.22345 -1.78129,-0.27854 -0.60392,-0.0555 -1.19784,-0.0902 -1.78077,-0.10697 -0.58393,-0.0136 -1.10216,-0.0443 -1.55546,-0.0889 -0.45168,-0.0452 -0.81855,-0.12643 -1.09554,-0.24185 -0.27591,-0.1154 -0.41496,-0.30405 -0.41496,-0.56637 0,-0.26185 0.17256,-0.49263 0.51624,-0.6935 0.43178,0.0599 0.8943,0.0904 1.38907,0.0904 0.88453,0 1.71377,-0.11792 2.48977,-0.35554 0.77484,-0.23661 1.44619,-0.57227 2.01383,-1.00976 0.56818,-0.43755 1.01673,-0.96883 1.34359,-1.59421 0.32686,-0.62268 0.49092,-1.32768 0.49092,-2.11202 0,-0.48372 -0.0703,-0.95025 -0.21032,-1.40457 l 1.14515,-0.2558 c 0.35249,-0.0797 0.6019,-0.19556 0.74672,-0.34726 0.14375,-0.15053 0.21911,-0.35671 0.21911,-0.61857 v -1.70584 h -4.72374 c -0.50264,-0.24185 -1.05055,-0.42748 -1.63918,-0.5581 -0.58864,-0.13116 -1.2143,-0.19585 -1.87844,-0.19585 z m -55.348559,0.0295 c -1.27902,0 -2.40334,0.20569 -3.37395,0.61908 -0.97161,0.41286 -1.786365,0.97827 -2.445328,1.69706 -0.658964,0.71972 -1.157666,1.56973 -1.494483,2.55023 -0.336815,0.98111 -0.505915,2.03621 -0.505915,3.16415 0,1.28689 0.193693,2.43436 0.580845,3.4401 0.387691,1.00627 0.910452,1.85418 1.569415,2.54403 0.658966,0.68884 1.424096,1.21518 2.294436,1.57716 0.86986,0.36153 1.78348,0.5426 2.73988,0.5426 0.53305,0 1.08085,-0.0372 1.64486,-0.11265 0.56293,-0.0755 1.12488,-0.21051 1.6831,-0.40721 0.55769,-0.19577 1.10466,-0.46814 1.63763,-0.81545 0.53305,-0.34678 1.04132,-0.79682 1.52497,-1.34979 l -1.35961,-1.6769 c -0.19045,-0.27135 -0.47291,-0.40669 -0.84439,-0.40669 -0.28115,0 -0.51655,0.0708 -0.70228,0.2098 -0.18674,0.1422 -0.38943,0.29617 -0.6103,0.46199 -0.22249,0.16567 -0.49184,0.31736 -0.80874,0.45268 -0.3169,0.13487 -0.74681,0.20361 -1.29036,0.20361 -1.0167,0 -1.81342,-0.40232 -2.3921,-1.2082 -0.57922,-0.80432 -0.86765,-1.95666 -0.86765,-3.45508 0,-0.71509 0.0658,-1.35523 0.19637,-1.92495 0.13116,-0.56764 0.33239,-1.04834 0.60359,-1.44074 0.27181,-0.39348 0.61588,-0.69655 1.03352,-0.90692 0.41757,-0.21036 0.91284,-0.3173 1.48673,-0.3173 0.4628,0 0.8501,0.0562 1.16221,0.16692 0.31165,0.11124 0.58309,0.23354 0.81545,0.36949 0.2309,0.13641 0.43908,0.25887 0.62528,0.36949 0.18574,0.11122 0.39545,0.16587 0.62581,0.16587 0.24186,0 0.42955,-0.0486 0.56017,-0.15141 0.1317,-0.0991 0.26501,-0.23516 0.40721,-0.40669 l 1.23765,-1.64589 c -0.7445,-0.75392 -1.57825,-1.32791 -2.50424,-1.72031 -0.92591,-0.39186 -2.0021,-0.58808 -3.22978,-0.58808 z m 14.49008,0 c -1.19882,0 -2.28645,0.18661 -3.26802,0.55862 -0.98112,0.37195 -1.82647,0.90481 -2.53577,1.5999 -0.70937,0.69417 -1.25769,1.53604 -1.64537,2.5275 -0.38661,0.99207 -0.58084,2.10585 -0.58084,3.34295 0,1.24814 0.19368,2.37137 0.58084,3.37395 0.38768,1.00103 0.93654,1.85134 1.64537,2.55075 0.7093,0.70034 1.55465,1.23716 2.53577,1.61489 0.98258,0.37819 2.07028,0.56585 3.26802,0.56585 1.18622,0 2.26789,-0.18913 3.24476,-0.56585 0.97633,-0.37773 1.81319,-0.91502 2.51199,-1.61489 0.701499,-0.69888 1.243759,-1.54872 1.630909,-2.55075 0.38823,-1.0015 0.58188,-2.12524 0.58188,-3.37292 0,-1.23811 -0.19411,-2.35202 -0.58188,-3.34346 -0.38715,-0.99162 -0.92941,-1.83336 -1.630909,-2.52699 -0.6988,-0.69617 -1.53566,-1.22898 -2.51199,-1.60093 -0.97578,-0.37201 -2.05753,-0.55862 -3.24476,-0.55862 z m 24.419179,0 c -1.19728,0 -2.28582,0.18661 -3.26802,0.55862 -0.98049,0.37195 -1.82596,0.90476 -2.53525,1.60093 -0.70984,0.69363 -1.25717,1.53537 -1.64486,2.52699 -0.38669,0.99144 -0.58084,2.10535 -0.58084,3.34346 0,1.24768 0.19261,2.37142 0.58084,3.37292 0.38769,1.00203 0.93502,1.85187 1.64486,2.55075 0.70929,0.69987 1.55476,1.23716 2.53525,1.61489 0.9822,0.37819 2.07074,0.56637 3.26802,0.56637 1.18669,0 2.26841,-0.18818 3.24527,-0.56637 0.97579,-0.37773 1.8132,-0.91502 2.51355,-1.61489 0.69988,-0.69888 1.24319,-1.54872 1.62987,-2.55075 0.38769,-1.0015 0.57981,-2.12524 0.57981,-3.37292 0,-1.23811 -0.19212,-2.35202 -0.57981,-3.34346 -0.38768,-0.99162 -0.93099,-1.83336 -1.62987,-2.52699 -0.70035,-0.69617 -1.53776,-1.22898 -2.51355,-1.60093 -0.97586,-0.37201 -2.0575,-0.55862 -3.24527,-0.55862 z m 40.71017,0 c -1.19827,0 -2.27083,0.20563 -3.22461,0.61857 -0.9517,0.41332 -1.76196,0.97074 -2.43034,1.67587 -0.67101,0.70404 -1.18372,1.52384 -1.54099,2.45979 -0.35781,0.93433 -0.53485,1.92681 -0.53485,2.97346 0,1.38926 0.20867,2.60641 0.62632,3.65198 0.41656,1.04773 0.98601,1.92318 1.7048,2.62723 0.7198,0.70458 1.56018,1.23487 2.5213,1.59214 0.96173,0.35782 1.98911,0.53589 3.08663,0.53589 0.53305,0 1.09339,-0.037 1.6831,-0.11265 0.58809,-0.076 1.1782,-0.21146 1.7663,-0.40824 0.58755,-0.1957 1.161,-0.46662 1.72031,-0.81339 0.55868,-0.34731 1.07845,-0.79732 1.56218,-1.35083 l -1.35806,-1.67638 c -0.19098,-0.27127 -0.47392,-0.40669 -0.84594,-0.40669 -0.2817,0 -0.54907,0.0652 -0.80822,0.19585 -0.25391,0.13116 -0.53596,0.27713 -0.84336,0.4377 -0.30794,0.16049 -0.65607,0.30862 -1.04955,0.4377 -0.39086,0.13108 -0.85892,0.19637 -1.40456,0.19637 -1.0147,0 -1.84604,-0.29503 -2.48926,-0.88367 -0.64375,-0.58871 -1.04009,-1.53687 -1.19217,-2.8453 h 9.02632 c 0.20982,0 0.38397,-0.0251 0.52038,-0.0749 0.13541,-0.0493 0.24376,-0.14066 0.32504,-0.27182 0.0808,-0.13116 0.13595,-0.30725 0.16486,-0.52865 0.0304,-0.22141 0.0455,-0.50677 0.0455,-0.86041 0,-1.1274 -0.17358,-2.13639 -0.51935,-3.02618 -0.34832,-0.88978 -0.83153,-1.64234 -1.45004,-2.25722 -0.6175,-0.61334 -1.35912,-1.08138 -2.21795,-1.40354 -0.85829,-0.32207 -1.80814,-0.48265 -2.84376,-0.48265 z m -98.002801,0.0636 c 0.62793,0 1.162285,0.10736 1.604558,0.32143 0.439176,0.21407 0.795374,0.49398 1.065564,0.83974 0.270192,0.34515 0.465376,0.7385 0.585496,1.17822 0.119118,0.44065 0.178803,0.89325 0.178803,1.35806 h -7.300849 c 0.200409,-1.19457 0.615821,-2.1092 1.24437,-2.74453 0.628473,-0.63481 1.503,-0.95292 2.622058,-0.95292 z m 84.270831,0.17777 v 15.65175 h 4.6793 v -15.65175 z m -10.5389,2.88302 c 0.77438,0 1.3353,0.18061 1.68207,0.54468 0.34732,0.36098 0.52038,0.85923 0.52038,1.49241 0,0.6138 -0.17306,1.11498 -0.52038,1.50275 -0.34677,0.38715 -0.90769,0.58033 -1.68207,0.58033 -0.38252,0 -0.7131,-0.0537 -0.98908,-0.15865 -0.27699,-0.10545 -0.5048,-0.25086 -0.68575,-0.43821 -0.18211,-0.18567 -0.31596,-0.40396 -0.40049,-0.65578 -0.086,-0.25128 -0.12868,-0.52929 -0.12868,-0.83044 0,-0.6338 0.17413,-1.13143 0.52091,-1.49241 0.34677,-0.36407 0.9071,-0.54468 1.68309,-0.54468 z m 24.35975,0.10491 c 0.50419,0 0.93271,0.0863 1.28365,0.25683 0.35156,0.17207 0.63599,0.39579 0.85215,0.67231 0.21669,0.27706 0.37215,0.58996 0.46818,0.94206 0.096,0.35148 0.14314,0.71585 0.14314,1.08779 h -5.84098 c 0.16111,-0.95648 0.49369,-1.6879 0.99632,-2.19624 0.50264,-0.50835 1.20414,-0.76275 2.09754,-0.76275 z m -65.218229,0.24184 c 1.07652,0 1.86871,0.37734 2.3766,1.13327 0.50726,0.75345 0.7617,1.90534 0.7617,3.45509 0,1.54921 -0.25444,2.70416 -0.7617,3.46386 -0.50735,0.75964 -1.30008,1.13999 -2.3766,1.13999 -1.10749,0 -1.91674,-0.38035 -2.43035,-1.13999 -0.51259,-0.7597 -0.76998,-1.91465 -0.76998,-3.46386 0,-1.54975 0.25739,-2.70164 0.76998,-3.45509 0.51306,-0.75593 1.32387,-1.13327 2.43035,-1.13327 z m 24.419179,0 c 1.07652,0 1.86876,0.37734 2.37712,1.13327 0.50734,0.75345 0.7617,1.90534 0.7617,3.45509 0,1.54921 -0.25436,2.70416 -0.7617,3.46386 -0.50782,0.75964 -1.29952,1.13999 -2.37712,1.13999 -1.10703,0 -1.91566,-0.38035 -2.4288,-1.13999 -0.51414,-0.7597 -0.77049,-1.91465 -0.77049,-3.46386 0,-1.54975 0.25635,-2.70164 0.77049,-3.45509 0.51314,-0.75593 1.32177,-1.13327 2.4288,-1.13327 z m 14.35571,11.59103 c 0.43277,0.0514 0.86975,0.085 1.3131,0.0992 0.44335,0.0157 0.86917,0.0328 1.28364,0.0522 0.41186,0.0206 0.7987,0.0515 1.15497,0.092 0.35781,0.0393 0.66934,0.10461 0.93637,0.19585 0.26495,0.0892 0.47669,0.21056 0.63201,0.36225 0.15633,0.15 0.23461,0.35117 0.23461,0.60306 0,0.23237 -0.0501,0.44621 -0.15193,0.64183 -0.10128,0.19678 -0.28088,0.36469 -0.5364,0.50643 -0.25707,0.13957 -0.60065,0.2499 -1.03404,0.33073 -0.43223,0.0808 -0.98571,0.12092 -1.65933,0.12092 -0.62385,0 -1.14007,-0.0382 -1.54668,-0.11265 -0.40814,-0.0756 -0.7317,-0.1795 -0.97411,-0.31058 -0.24077,-0.13069 -0.40995,-0.28775 -0.5059,-0.46716 -0.0955,-0.18095 -0.14315,-0.38325 -0.14315,-0.60357 0,-0.31219 0.0949,-0.59263 0.28009,-0.8382 0.18682,-0.24711 0.42502,-0.47036 0.71675,-0.67231 z m 46.72583,0.92449 0.83457,8.34833 -6.5784,5.47718 8.58291,1.92185 3.51709,7.71633 4.47058,-7.15926 8.75342,-0.70797 -5.82235,-6.3469 1.8929,-8.15608 -8.06722,3.23959 z m -104.021039,2.72852 v 18.86138 h 3.90519 v -18.86138 z m 73.825469,2.00401 c -0.46898,0 -0.75611,0.20014 -0.85577,0.60513 l -0.76842,3.18637 -2.07998,0.40307 v 1.52446 c 0,0.25127 0.0718,0.44296 0.21497,0.57412 0.14267,0.12962 0.31317,0.19534 0.51729,0.19534 h 1.10742 v 6.75308 c 0,0.57921 0.0843,1.10498 0.25167,1.57458 0.1679,0.46959 0.4138,0.87202 0.73742,1.2025 0.32215,0.33219 0.72099,0.58849 1.19631,0.76844 0.4753,0.18203 1.02264,0.27234 1.64486,0.27234 0.67155,0 1.32267,-0.0954 1.95647,-0.28216 0.63063,-0.18937 1.19597,-0.47276 1.70015,-0.85111 l -1.18442,-1.8526 c -0.0761,-0.11642 -0.14884,-0.20334 -0.21963,-0.25787 -0.0724,-0.0551 -0.16623,-0.0832 -0.28473,-0.0832 -0.0855,0 -0.15772,0.0155 -0.21963,0.045 -0.0651,0.0284 -0.13171,0.0635 -0.20412,0.10078 -0.0713,0.0373 -0.15458,0.0709 -0.25115,0.10025 -0.097,0.031 -0.21646,0.0439 -0.35967,0.0439 -0.27752,0 -0.48872,-0.0983 -0.63717,-0.29559 -0.14744,-0.19724 -0.22065,-0.44707 -0.22065,-0.7493 v -6.48901 h 3.17551 v -2.67065 h -3.17551 v -3.81785 z m -41.64139,1.0697 6.11953,15.78767 h 4.29327 l 6.12056,-15.78767 h -3.74448 c -0.30585,0 -0.56927,0.0782 -0.79168,0.23565 -0.22457,0.15787 -0.37496,0.35254 -0.45733,0.58652 l -2.28359,7.08019 c -0.18103,0.57767 -0.35519,1.1416 -0.51676,1.68879 -0.16266,0.54926 -0.29959,1.09662 -0.41083,1.64434 -0.11116,-0.5488 -0.24669,-1.09608 -0.40256,-1.64434 -0.1574,-0.54719 -0.3219,-1.11112 -0.49506,-1.68879 l -2.1916,-7.08019 c -0.0834,-0.23398 -0.23735,-0.42966 -0.46508,-0.58652 -0.22974,-0.15641 -0.51075,-0.23565 -0.8444,-0.23565 z m 35.58491,2.46806 c -0.70721,0 -1.35738,0.2142 -1.95388,0.64234 -0.59705,0.42807 -1.1333,1.01258 -1.61231,1.75183 l -0.2155,-1.22162 c -0.0325,-0.16799 -0.0732,-0.31142 -0.11936,-0.42892 -0.0461,-0.11803 -0.11292,-0.21137 -0.20154,-0.2837 -0.0872,-0.0709 -0.19605,-0.12255 -0.3266,-0.15658 -0.13123,-0.0337 -0.29263,-0.0507 -0.48679,-0.0506 h -2.31717 v 13.06381 h 3.90519 v -8.01347 c 0.58709,-1.09074 1.39585,-1.63711 2.42104,-1.63711 0.29273,0 0.53611,0.0202 0.72863,0.0563 0.19362,0.0383 0.3622,0.0568 0.5054,0.0568 0.16737,0 0.30138,-0.0356 0.40205,-0.10697 0.10128,-0.0708 0.16897,-0.19469 0.20256,-0.37156 l 0.50385,-2.87217 c -0.36152,-0.28594 -0.84061,-0.4284 -1.43557,-0.4284 z m -44.661869,0.0496 c -0.86454,0 -1.62116,0.11304 -2.26808,0.33538 -0.64685,0.22302 -1.18417,0.52139 -1.61231,0.9002 -0.42807,0.37727 -0.74923,0.8168 -0.96376,1.3162 -0.21461,0.50001 -0.32143,1.02666 -0.32143,1.58233 0,0.59651 0.0888,1.10525 0.2651,1.52497 0.17632,0.41973 0.40649,0.77445 0.69298,1.06402 0.28486,0.28957 0.61104,0.5294 0.97565,0.71831 0.36515,0.18882 0.73701,0.35034 1.11466,0.48575 0.37882,0.13379 0.75,0.25375 1.1157,0.35812 0.36514,0.10599 0.69022,0.21878 0.97616,0.34106 0.28541,0.12112 0.51666,0.26624 0.69299,0.43461 0.17624,0.1679 0.26509,0.3821 0.26509,0.64233 0,0.14313 -0.0301,0.28175 -0.0889,0.416 -0.0587,0.13548 -0.15009,0.25717 -0.27647,0.36587 -0.12645,0.10916 -0.29348,0.19443 -0.50384,0.25734 -0.20991,0.0634 -0.46774,0.0946 -0.76843,0.0946 -0.42806,0 -0.78436,-0.0502 -1.06505,-0.1509 -0.28061,-0.0997 -0.527,-0.20949 -0.73691,-0.32814 -0.20982,-0.11687 -0.40505,-0.22632 -0.58601,-0.32814 -0.18049,-0.10019 -0.38473,-0.1509 -0.61185,-0.1509 -0.24294,0 -0.43904,0.0486 -0.59066,0.14573 -0.15161,0.0954 -0.28255,0.22891 -0.39171,0.39635 l -0.9064,1.43661 c 0.25182,0.22766 0.55438,0.43942 0.9064,0.63666 0.35311,0.19724 0.7374,0.3662 1.15342,0.51056 0.4161,0.1432 0.84595,0.25621 1.29192,0.33951 0.44434,0.0846 0.88934,0.12765 1.33531,0.12765 0.88978,0 1.67589,-0.10989 2.3611,-0.32867 0.684129,-0.21824 1.260609,-0.52528 1.726509,-0.91984 0.46589,-0.39449 0.81714,-0.86405 1.05213,-1.41076 0.23615,-0.54672 0.35295,-1.14218 0.35295,-1.78956 0,-0.52781 -0.0858,-0.98237 -0.25787,-1.36065 -0.17153,-0.37772 -0.40037,-0.69881 -0.68523,-0.96376 -0.2854,-0.26386 -0.60693,-0.48777 -0.96738,-0.66817 -0.36098,-0.17995 -0.7307,-0.3375 -1.107429,-0.47129 -0.37664,-0.13432 -0.74551,-0.25619 -1.10587,-0.36535 -0.36152,-0.1097 -0.68353,-0.22559 -0.96893,-0.34779 -0.28541,-0.1212 -0.5137,-0.26113 -0.68523,-0.42116 -0.17262,-0.15996 -0.25787,-0.36113 -0.25787,-0.60616 0,-0.33573 0.13144,-0.59813 0.39584,-0.78703 0.26441,-0.18883 0.64421,-0.28267 1.13844,-0.28267 0.34314,0 0.64914,0.0401 0.91725,0.11988 0.26811,0.0797 0.50948,0.16551 0.72347,0.25684 0.212529,0.0923 0.412159,0.17959 0.596339,0.25941 0.18467,0.0802 0.36829,0.11937 0.55295,0.11937 0.17524,0 0.32075,-0.0332 0.43408,-0.10076 0.11278,-0.0672 0.22019,-0.18109 0.32039,-0.34004 l 0.8816,-1.37408 c -0.2434,-0.2444 -0.52539,-0.46874 -0.84491,-0.67385 -0.31844,-0.2062 -0.67115,-0.38477 -1.0573,-0.53692 -0.38668,-0.15108 -0.79951,-0.26795 -1.241779,-0.3514 -0.44073,-0.0844 -0.89624,-0.12764 -1.36684,-0.12764 z m 62.929489,0 c -0.86354,0 -1.62221,0.11304 -2.26705,0.33538 -0.6463,0.22302 -1.18677,0.52139 -1.61437,0.9002 -0.42752,0.37727 -0.7497,0.8168 -0.96377,1.3162 -0.21453,0.50001 -0.3209,1.02666 -0.3209,1.58233 0,0.59651 0.0883,1.10525 0.26251,1.52497 0.17725,0.41973 0.40864,0.77445 0.69505,1.06402 0.2854,0.28957 0.61001,0.5294 0.97461,0.71831 0.36677,0.18882 0.73851,0.35034 1.1157,0.48575 0.38089,0.13379 0.75058,0.25375 1.11673,0.35812 0.36415,0.10599 0.68971,0.21878 0.97565,0.34106 0.28648,0.12112 0.51672,0.26624 0.6935,0.43461 0.17786,0.1679 0.2651,0.3821 0.2651,0.64233 0,0.14313 -0.0296,0.28175 -0.0873,0.416 -0.0599,0.13548 -0.15111,0.25717 -0.27802,0.36587 -0.12807,0.10916 -0.29452,0.19443 -0.50334,0.25734 -0.20982,0.0634 -0.46781,0.0946 -0.76842,0.0946 -0.42868,0 -0.78429,-0.0502 -1.0666,-0.1509 -0.27908,-0.0997 -0.52608,-0.20949 -0.73536,-0.32814 -0.21044,-0.11687 -0.40606,-0.22632 -0.58601,-0.32814 -0.18041,-0.10019 -0.38524,-0.1509 -0.61082,-0.1509 -0.2434,0 -0.43953,0.0486 -0.59169,0.14573 -0.15215,0.0954 -0.28407,0.22891 -0.39223,0.39635 l -0.90692,1.43661 c 0.25236,0.22766 0.55545,0.43942 0.90692,0.63666 0.35365,0.19724 0.73738,0.3662 1.15394,0.51056 0.41494,0.1432 0.8454,0.25621 1.29191,0.33951 0.44382,0.0846 0.88883,0.12765 1.3348,0.12765 0.88971,0 1.678,-0.10989 2.36213,-0.32867 0.68467,-0.21824 1.26013,-0.52528 1.72703,-0.91984 0.4648,-0.39449 0.81551,-0.86405 1.05213,-1.41076 0.23398,-0.54672 0.35192,-1.14218 0.35192,-1.78956 0,-0.52781 -0.0853,-0.98237 -0.25787,-1.36065 -0.17107,-0.37772 -0.40134,-0.69881 -0.68574,-0.96376 -0.28278,-0.26386 -0.60857,-0.48777 -0.96739,-0.66817 -0.36151,-0.17995 -0.73021,-0.3375 -1.10794,-0.47129 -0.37611,-0.13432 -0.74495,-0.25619 -1.1064,-0.36535 -0.35943,-0.1097 -0.6819,-0.22559 -0.96738,-0.34779 -0.2864,-0.1212 -0.51371,-0.26113 -0.68471,-0.42116 -0.17207,-0.15996 -0.25786,-0.36113 -0.25786,-0.60616 0,-0.33573 0.13193,-0.59813 0.39687,-0.78703 0.26386,-0.18883 0.6442,-0.28267 1.13688,-0.28267 0.34515,0 0.65068,0.0401 0.91933,0.11988 0.26857,0.0797 0.50844,0.16551 0.72243,0.25684 0.21407,0.0923 0.41327,0.17959 0.59893,0.25941 0.18211,0.0802 0.36825,0.11937 0.55191,0.11937 0.17624,0 0.32181,-0.0332 0.4346,-0.10076 0.11332,-0.0672 0.21963,-0.18109 0.32091,-0.34004 l 0.87643,-1.37408 c -0.2434,-0.2444 -0.52384,-0.46874 -0.84336,-0.67385 -0.31953,-0.2062 -0.67327,-0.38477 -1.05833,-0.53692 -0.38669,-0.15108 -0.79954,-0.26795 -1.23972,-0.3514 -0.44226,-0.0844 -0.89887,-0.12764 -1.36839,-0.12764 z m -74.813519,0.002 c -0.99941,0 -1.89497,0.17311 -2.68873,0.51779 -0.79329,0.3447 -1.46959,0.81033 -2.02881,1.39888 -0.55822,0.58864 -0.98721,1.27243 -1.2852,2.05414 -0.29845,0.78172 -0.447,1.60845 -0.447,2.48202 0,1.15944 0.17356,2.17532 0.52297,3.04943 0.34839,0.87404 0.82355,1.60296 1.42368,2.1916 0.60022,0.58855 1.30158,1.03219 2.10375,1.33118 0.80216,0.29697 1.66053,0.447 2.57556,0.447 0.44488,0 0.91353,-0.0327 1.40559,-0.0961 0.49105,-0.0645 0.98271,-0.17636 1.47485,-0.34055 0.48997,-0.16267 0.96862,-0.39102 1.43505,-0.68058 0.46635,-0.28911 0.9014,-0.66535 1.30483,-1.12707 l -1.13481,-1.39836 c -0.15903,-0.22774 -0.39376,-0.34106 -0.70487,-0.34106 -0.23453,0 -0.45933,0.0557 -0.67386,0.16432 -0.21461,0.10916 -0.44931,0.23111 -0.70538,0.36536 -0.25599,0.13486 -0.54906,0.2573 -0.87592,0.36483 -0.32794,0.10913 -0.7182,0.1633 -1.1715,0.1633 -0.84888,0 -1.54124,-0.24368 -2.07946,-0.7369 -0.53831,-0.49052 -0.8694,-1.28115 -0.99477,-2.3735 h 7.53442 c 0.17624,0 0.32127,-0.0216 0.4346,-0.0646 0.11333,-0.0414 0.20362,-0.11617 0.27078,-0.22479 0.0671,-0.11016 0.1133,-0.25716 0.13849,-0.44235 0.0251,-0.18366 0.0377,-0.424 0.0377,-0.71727 0,-0.9412 -0.14449,-1.78408 -0.4346,-2.52749 -0.29011,-0.74388 -0.69397,-1.37142 -1.21027,-1.88309 -0.51568,-0.51198 -1.13287,-0.90288 -1.85104,-1.17254 -0.71826,-0.26919 -1.51038,-0.40359 -2.37608,-0.40359 z m 42.316279,0 c -0.99941,0 -1.89755,0.17264 -2.68976,0.51779 -0.79275,0.3447 -1.46904,0.81033 -2.02727,1.39888 -0.55922,0.58864 -0.9877,1.27243 -1.28623,2.05414 -0.29698,0.78172 -0.44648,1.60845 -0.44648,2.48202 0,1.15944 0.1746,2.17532 0.52245,3.04943 0.3494,0.87404 0.82352,1.60296 1.4242,2.1916 0.60076,0.58855 1.30215,1.03219 2.10323,1.33118 0.80325,0.29697 1.66213,0.447 2.57763,0.447 0.44543,0 0.91405,-0.0327 1.40611,-0.0961 0.4906,-0.0645 0.98177,-0.17636 1.47329,-0.34055 0.49114,-0.16267 0.96969,-0.39102 1.43558,-0.68058 0.46697,-0.28911 0.90347,-0.66535 1.30482,-1.12707 l -1.13481,-1.39836 c -0.16003,-0.22774 -0.39432,-0.34106 -0.70435,-0.34106 -0.23662,0 -0.46031,0.0557 -0.67438,0.16432 -0.21407,0.10916 -0.45045,0.23111 -0.70589,0.36536 -0.25607,0.13486 -0.54906,0.2573 -0.87592,0.36483 -0.32686,0.10913 -0.71874,0.1633 -1.1715,0.1633 -0.84888,0 -1.5417,-0.24368 -2.07947,-0.7369 -0.53876,-0.49052 -0.86886,-1.28115 -0.99632,-2.3735 h 7.53494 c 0.17678,0 0.32182,-0.0216 0.4346,-0.0646 0.11279,-0.0414 0.20308,-0.11563 0.27078,-0.22479 0.0676,-0.11016 0.11384,-0.25716 0.13953,-0.44235 0.0242,-0.18366 0.0362,-0.424 0.0362,-0.71727 0,-0.9412 -0.14496,-1.78408 -0.43461,-2.52749 -0.28957,-0.74388 -0.693,-1.37142 -1.20922,-1.88309 -0.51731,-0.51198 -1.13438,-0.90288 -1.85209,-1.17254 -0.71771,-0.26919 -1.51043,-0.40359 -2.37504,-0.40359 z m -42.239799,2.69699 c 0.41919,0 0.77589,0.0713 1.07125,0.21395 0.29382,0.14274 0.53118,0.33035 0.71158,0.56171 0.18003,0.22928 0.30988,0.49217 0.39016,0.78807 0.0797,0.29328 0.12041,0.59486 0.12041,0.90589 h -4.87671 c 0.13487,-0.79738 0.41121,-1.40954 0.83148,-1.83451 0.41973,-0.4239 1.00417,-0.63511 1.75183,-0.63511 z m 42.314729,0 c 0.41972,0 0.77795,0.0723 1.07177,0.21395 0.29327,0.14274 0.53062,0.33035 0.71003,0.56171 0.18311,0.22928 0.31089,0.49217 0.39326,0.78807 0.0792,0.29328 0.11885,0.59486 0.11885,0.90589 h -4.87618 c 0.1327,-0.79738 0.41017,-1.40954 0.83044,-1.83451 0.4208,-0.4239 1.00316,-0.63511 1.75183,-0.63511 z m 42.67336,9.20667 -3.46697,5.72265 -6.90862,0.70797 4.65294,4.90616 -1.42317,6.465751 6.34535,-2.69079 6.02547,3.28869 -0.73122,-6.569621 5.14956,-4.43436 -6.797,-1.36839 z m -16.04553,13.08086 -3.34811,3.188951 -4.68551,-0.69504 2.15594,4.01525 -2.13682,4.02043 4.6793,-0.70796 3.36104,3.17912 0.73639,-4.45243 4.21835,-2.05569 -4.22662,-2.04432 z"
       style="fill-opacity:1;fill-rule:nonzero;stroke:none;stroke-width:0.617585"
       fill="currentColor"
       id="path1" />
  </g>
</svg>
