<?xml version="1.0" encoding="UTF-8" standalone="no"?>
<!-- Created with Inkscape (http://www.inkscape.org/) -->

<svg
   width="962.03271"
   height="414.50717"
   viewBox="0 0 254.53782 109.67169"
   version="1.1"
   id="svg8"
   inkscape:version="0.92.1 r15371"
   sodipodi:docname="lfi.svg"
   xmlns:inkscape="http://www.inkscape.org/namespaces/inkscape"
   xmlns:sodipodi="http://sodipodi.sourceforge.net/DTD/sodipodi-0.dtd"
   xmlns="http://www.w3.org/2000/svg"
   xmlns:svg="http://www.w3.org/2000/svg"
   xmlns:rdf="http://www.w3.org/1999/02/22-rdf-syntax-ns#"
   xmlns:cc="http://creativecommons.org/ns#"
   xmlns:dc="http://purl.org/dc/elements/1.1/">
  <defs
     id="defs2" />
  <sodipodi:namedview
     id="base"
     pagecolor="#ffffff"
     bordercolor="#666666"
     borderopacity="1.0"
     inkscape:pageopacity="0.0"
     inkscape:pageshadow="2"
     inkscape:zoom="0.87061669"
     inkscape:cx="481.5075"
     inkscape:cy="210.57802"
     inkscape:document-units="px"
     inkscape:current-layer="layer1"
     showgrid="false"
     units="px"
     inkscape:showpageshadow="false"
     borderlayer="true"
     fit-margin-top="0"
     fit-margin-left="0"
     fit-margin-right="0"
     fit-margin-bottom="0"
     inkscape:window-width="1920"
     inkscape:window-height="1017"
     inkscape:window-x="-8"
     inkscape:window-y="-8"
     inkscape:window-maximized="1"
     inkscape:pagecheckerboard="false"
     inkscape:deskcolor="#d1d1d1" />
  <metadata
     id="metadata5">
    <rdf:RDF>
      <cc:Work
         rdf:about="">
        <dc:format>image/svg+xml</dc:format>
        <dc:type
           rdf:resource="http://purl.org/dc/dcmitype/StillImage" />
        <dc:title />
      </cc:Work>
    </rdf:RDF>
  </metadata>
  <g
     inkscape:label="Layer 1"
     inkscape:groupmode="layer"
     id="layer1"
     transform="translate(-71.038779,-180.47754)">
    <g
       id="g4640">
      <g
         id="g4660">
        <path
           id="path4621"
           fill="currentColor"
           style="fill-opacity:1;stroke-width:0.264583"
           d="m 110.10965,180.48873 c -1.5034,-0.0605 -3.22146,0.12426 -5.18573,0.54984 -16.49284,3.5733 -29.255065,16.27084 -32.906006,32.7396 -0.279723,1.26179 -0.650815,3.91943 -0.824755,5.90558 -1.670364,19.07304 10.367001,37.39617 28.684553,43.66297 l 2.515088,0.86041 0.17209,2.25878 c 0.48036,6.31077 1.85282,14.33461 3.19825,18.6986 0.79383,2.57486 2.10889,4.10049 4.06849,4.72012 3.05645,0.96648 6.50494,-0.80762 7.4042,-3.80907 0.43498,-1.45184 0.37614,-2.24226 -0.36484,-4.91546 -0.86681,-3.1271 -1.6104,-7.02087 -2.10633,-11.02671 -0.59726,-4.82425 -0.81405,-4.34446 2.04535,-4.53254 17.33455,-1.14016 32.44341,-12.97166 38.04212,-29.79043 1.84,-5.52741 2.21511,-7.89158 2.22881,-14.04928 0.0105,-4.7312 -0.0662,-5.77268 -0.59945,-8.1535 -2.41299,-10.77419 -7.65808,-18.1549 -14.88229,-20.94084 -10.13951,-3.91022 -20.21878,-0.19459 -27.21126,10.03194 -6.34939,9.28601 -10.7808,25.58194 -11.94708,43.93324 -0.1711,2.69213 -0.3333,4.9214 -0.3607,4.9537 -0.12333,0.14558 -3.516259,-1.61069 -5.122683,-2.65152 -6.489137,-4.20445 -11.227455,-10.80852 -13.198677,-18.39681 -0.823986,-3.17196 -1.113948,-8.66033 -0.632003,-11.95637 1.393082,-9.52734 6.779863,-17.52125 15.169617,-22.51232 1.196756,-0.71195 2.267726,-1.29491 2.380216,-1.29502 0.1125,-1e-4 0.0334,0.2679 -0.1757,0.59532 -2.399103,3.75729 0.45014,8.9034 4.94078,8.924 2.39863,0.011 3.78642,-0.95831 7.18923,-5.0214 5.921,-7.06993 7.05196,-12.61689 3.34656,-16.41088 -1.45377,-1.48855 -3.3622,-2.27117 -5.86785,-2.37195 z m 55.84672,21.69325 v 11.90625 11.90625 h 7.8052 7.80521 v -2.64584 -2.64583 h -4.7625 -4.7625 v -9.26042 -9.26041 h -3.04271 z m 48.94791,0 v 11.90625 11.90625 h 3.04271 3.04271 v -4.63021 -4.63021 h 5.55625 5.55625 v -2.64583 -2.64584 h -5.55625 -5.55625 v -1.98437 -1.98438 h 5.68854 5.68854 v -2.64583 -2.64583 h -8.73125 z m -81.09479,0.92604 c 2.07491,0 2.5766,0.0958 3.89692,0.74414 1.97459,0.96964 3.60568,2.84902 5.09478,5.87044 1.4303,2.90213 2.13712,5.40535 2.52801,8.95088 0.83129,7.54023 -1.56995,15.96774 -6.42131,22.53661 -4.69669,6.35941 -11.54757,10.70632 -19.12132,12.13311 -2.48457,0.46809 -5.53327,0.76402 -5.74021,0.55707 -0.34372,-0.34371 0.40927,-11.2504 1.14101,-16.52871 2.43663,-17.57629 7.98492,-30.20901 14.72003,-33.5163 1.327,-0.65163 1.82494,-0.74724 3.90209,-0.74724 z m 112.31562,5.36505 -0.97978,0.18397 c -1.18074,0.2215 -2.90143,1.05615 -3.71657,1.80299 l -0.59531,0.54518 v -1.10432 -1.10433 h -2.77813 -2.77812 v 8.59896 8.59896 h 2.77812 2.77813 v -5.40484 -5.40484 l 0.66456,-0.52245 c 0.789,-0.62063 3.05762,-1.21219 3.97598,-1.03663 l 0.65112,0.12454 v -2.63859 z m 35.37872,0.10077 c -0.32666,-0.009 -0.66454,0.001 -1.01285,0.0326 -1.64719,0.14788 -3.74471,0.9741 -4.66277,1.83658 l -0.59893,0.56224 v -1.10432 -1.10433 h -2.77812 -2.77813 v 8.59896 h 5.2e-4 v 8.59896 h 2.77812 2.77813 v -5.533 -5.53248 l 0.77463,-0.65215 c 1.46341,-1.23139 3.81012,-1.23164 4.77852,-5.2e-4 0.49479,0.62908 0.53226,1.06647 0.53226,6.19755 v 5.5206 h 2.77813 2.77812 l -0.006,-6.68073 c -0.005,-5.90891 -0.0618,-6.80418 -0.49144,-7.74992 -0.85038,-1.87208 -2.58336,-2.92394 -4.86999,-2.98999 z m -89.92216,0.0202 c -0.45258,-0.0402 -0.91814,-0.0372 -1.38906,0.0114 -1.86189,0.19216 -3.292,0.95202 -4.61057,2.44998 -1.52689,1.73465 -2.03127,3.37914 -2.02727,6.60476 0.003,2.28259 0.0971,2.84579 0.68368,4.10259 1.00491,2.1532 2.62521,3.60755 4.73512,4.24936 1.92522,0.58562 4.51516,0.0739 6.2239,-1.22938 l 0.9214,-0.70332 v 0.95756 0.95757 h 2.77812 2.77813 v -8.46667 -8.46667 h -2.77813 -2.77812 v 0.95654 0.95704 l -1.00408,-0.90744 c -0.93256,-0.84251 -2.17536,-1.35269 -3.53312,-1.47329 z m 64.02917,0 c -0.45259,-0.0402 -0.91815,-0.0372 -1.38906,0.0114 -1.86189,0.19216 -3.29201,0.95202 -4.61057,2.44998 -1.5269,1.73465 -2.03127,3.37914 -2.02727,6.60476 0.003,2.28259 0.0971,2.84579 0.68368,4.10259 1.00492,2.1532 2.62519,3.60755 4.73511,4.24936 1.92522,0.58562 4.51516,0.0739 6.22391,-1.22938 l 0.92139,-0.70332 v 0.95756 0.95757 h 2.77813 2.77812 v -8.46667 -8.46667 h -2.77812 -2.77813 v 0.95654 0.95704 l -1.00407,-0.90744 c -0.93256,-0.84251 -2.17536,-1.35269 -3.53312,-1.47329 z m 42.662,0.006 c -2.4398,0.14614 -4.84809,1.08424 -6.39755,2.76521 -1.72805,1.87471 -2.22748,3.23456 -2.21588,6.03012 0.008,1.83909 0.13622,2.65987 0.56534,3.60443 1.09904,2.41913 3.47124,4.35129 6.10402,4.97179 2.95162,0.69564 6.60944,-0.063 8.53229,-1.7694 l 1.12448,-0.99736 -1.75286,-1.63969 -1.75235,-1.63918 -0.95188,0.64596 c -1.35046,0.91645 -2.53686,1.07802 -3.94963,0.53847 -1.52104,-0.58088 -2.30747,-1.68589 -2.43758,-3.42615 -0.13431,-1.79649 0.51976,-3.00204 2.06809,-3.81165 1.44698,-0.75661 3.08976,-0.62839 4.35943,0.34003 l 0.85524,0.65215 1.78491,-1.63555 1.7849,-1.63608 -1.13326,-1.00562 c -1.67647,-1.48773 -4.14792,-2.13362 -6.58771,-1.98748 z m 18.36373,0.0724 c -2.84692,0.005 -4.62387,0.69278 -6.39961,2.4784 -1.67211,1.68144 -2.30853,3.19678 -2.42155,5.76554 -0.19729,4.48389 1.84467,7.50743 5.95777,8.82168 2.52944,0.80822 5.81626,0.5951 8.41241,-0.5457 2.14346,-0.94188 2.14802,-0.95861 0.8046,-2.95951 l -1.19321,-1.77715 -0.91209,0.53795 c -1.03038,0.60799 -3.32561,0.92501 -4.75526,0.65681 -0.91507,-0.17167 -2.80035,-1.70626 -2.80035,-2.27945 0,-0.15726 2.35842,-0.2558 6.12366,-0.2558 h 6.12366 l -0.154,-1.91823 c -0.21566,-2.68545 -0.82377,-4.21747 -2.32647,-5.86166 -1.84707,-2.02098 -3.4167,-2.66788 -6.45956,-2.66288 z m 0.0765,4.35735 c 0.77755,0 1.67376,0.13304 1.99161,0.29559 0.68766,0.35167 1.4901,1.29137 1.4981,1.75494 0.004,0.24793 -0.85549,0.33072 -3.4339,0.33072 -3.55581,0 -3.86059,-0.10562 -3.10006,-1.07073 0.71783,-0.91095 1.64634,-1.31052 3.04425,-1.31052 z m -124.13764,0.45889 c 0.78291,-0.0502 1.60971,0.11315 2.38435,0.5147 l 1.02681,0.53227 0.0749,2.79207 0.0749,2.79208 -0.88057,0.54415 c -0.93269,0.57645 -2.61999,0.88978 -3.50211,0.65009 -2.30938,-0.6275 -3.48474,-3.66457 -2.28565,-5.90713 0.6189,-1.15748 1.80246,-1.8345 3.1073,-1.91823 z m 64.02917,0 c 0.78291,-0.0502 1.6097,0.11315 2.38435,0.5147 l 1.02681,0.53227 0.0749,2.79207 0.0749,2.79208 -0.88056,0.54415 c -0.93269,0.57645 -2.62051,0.88978 -3.50263,0.65009 -2.30938,-0.6275 -3.48422,-3.66457 -2.28514,-5.90713 0.61891,-1.15748 1.80246,-1.8345 3.10731,-1.91823 z m -87.96982,16.05845 c -0.2646,-0.003 -0.53342,0.0323 -0.80151,0.11266 -1.9874,0.59544 -2.88337,2.52393 -2.01899,4.34547 0.24469,0.51565 0.8228,1.12972 1.28571,1.36581 1.79202,0.91394 3.85754,-0.0105 4.4514,-1.99265 0.56226,-1.87662 -1.06443,-3.80825 -2.91661,-3.83129 z m 117.21041,0 c -0.2646,-0.003 -0.53341,0.0323 -0.8015,0.11266 -1.98741,0.59544 -2.88338,2.52393 -2.019,4.34547 0.24469,0.51565 0.8228,1.12972 1.28571,1.36581 1.79203,0.91394 3.85755,-0.0105 4.45141,-1.99265 0.56225,-1.87662 -1.06443,-3.80825 -2.91662,-3.83129 z m -65.78151,7.59024 c -3.81578,0 -7.63126,1.99626 -8.86458,5.9893 -0.6377,2.06462 -0.66391,3.38219 -0.10697,5.36711 0.79179,2.82189 3.16578,5.13413 6.09834,5.93969 3.99768,1.09814 8.5499,-0.34199 10.62777,-3.36207 0.93206,-1.35469 1.63815,-3.56234 1.63815,-5.12113 0,-0.61311 -0.23732,-1.88372 -0.52762,-2.8236 -1.23332,-3.99304 -5.04931,-5.9893 -8.86509,-5.9893 z m 97.04162,0.0238 c -2.862,-0.13657 -5.804,1.05005 -7.67395,3.49694 -1.18894,1.55577 -1.6583,3.06758 -1.6583,5.34283 0,4.16979 2.088,7.06263 6.00015,8.31267 2.52944,0.80822 5.81626,0.5951 8.41241,-0.5457 2.14346,-0.94188 2.14802,-0.95913 0.8046,-2.96003 l -1.19321,-1.77715 -0.93483,0.5519 c -1.15454,0.68121 -3.90039,0.94544 -5.23689,0.50436 -0.89575,-0.29563 -2.29598,-1.60815 -2.29598,-2.15232 0,-0.14228 2.5569,-0.24443 6.12366,-0.24443 h 6.12366 l -0.154,-1.91823 c -0.21566,-2.68544 -0.82377,-4.21695 -2.32647,-5.86114 -1.58734,-1.73679 -3.76485,-2.64348 -5.99085,-2.7497 z m -53.47374,5.1e-4 c -1.85521,0.0418 -4.1229,0.78301 -5.26583,1.85674 l -0.59893,0.56224 v -1.10433 -1.10484 h -2.77812 -2.77813 v 8.59896 8.59896 h 2.77813 2.77812 v -5.50974 c 0,-5.37258 0.0149,-5.5241 0.59531,-6.06785 1.32693,-1.24301 3.07305,-1.4471 4.0473,-0.47284 0.64933,0.64933 0.64906,0.65033 0.64906,6.35 v 5.70043 h 2.77812 2.77813 v -5.50974 c 0,-5.37258 0.0148,-5.5241 0.59531,-6.06785 1.32247,-1.23883 2.98002,-1.43535 4.08657,-0.48421 l 0.74208,0.63821 0.0853,5.71179 0.0847,5.7118 h 2.62723 2.62671 v -6.70709 c 0,-7.26814 -0.1056,-7.98093 -1.38389,-9.33896 -1.94455,-2.06584 -6.34419,-1.73982 -8.89661,0.65939 -1.00319,0.94301 -1.09658,0.98254 -1.09658,0.46509 0,-0.54913 -1.66477,-1.90861 -2.79311,-2.281 -0.4698,-0.15505 -1.04248,-0.21908 -1.66088,-0.20516 z m -77.33533,5.2e-4 c -2.01176,0.0344 -4.28105,0.75485 -5.45341,1.85622 l -0.59893,0.56224 v -1.10433 -1.10484 h -2.77813 -2.77812 v 8.59896 8.59896 h 2.7776 2.77865 v -5.53248 -5.533 l 0.77463,-0.65164 c 1.4634,-1.23139 3.80961,-1.23163 4.778,-5.1e-4 0.49479,0.62908 0.53227,1.06595 0.53227,6.19703 v 5.5206 h 2.77864 2.77761 l -5.2e-4,-6.41615 c -8.9e-4,-3.86465 -0.11806,-6.83441 -0.29404,-7.46828 -0.39354,-1.41754 -1.9386,-2.91687 -3.4184,-3.31711 -0.56312,-0.1523 -1.20526,-0.21712 -1.87585,-0.20567 z m 15.40423,0.0522 c -1.48332,-0.0161 -2.88178,0.18316 -3.85817,0.63304 -1.66955,0.76928 -2.45903,1.49618 -3.07526,2.83135 -1.25113,2.71083 0.008,5.5806 2.89646,6.5996 0.62705,0.22124 2.17332,0.59493 3.43597,0.83096 1.26265,0.23603 2.50382,0.54034 2.75849,0.67592 0.73201,0.38974 0.55962,1.18192 -0.33848,1.55391 -1.52542,0.63185 -3.84068,0.0743 -7.45226,-1.79472 -0.17252,-0.0893 -0.76801,0.76364 -1.94148,2.78071 -0.49,0.84229 -0.48932,0.86271 0.0202,1.24799 0.89538,0.67713 2.74887,1.4745 4.30775,1.8526 2.84706,0.69056 6.23342,0.40098 8.38088,-0.71624 2.47685,-1.28859 3.46379,-4.37582 2.17661,-6.80992 -0.79596,-1.50518 -2.55665,-2.4835 -5.4839,-3.04839 -4.11063,-0.79325 -4.73778,-1.20101 -3.29851,-2.14406 0.93883,-0.61514 3.23877,-0.3395 5.17488,0.62012 l 1.51412,0.75034 0.98857,-1.83089 0.98909,-1.8309 -0.63356,-0.48731 c -1.38161,-1.06202 -4.08916,-1.68726 -6.56135,-1.71411 z m 96.8375,5.2e-4 c -1.48332,-0.0161 -2.88178,0.18315 -3.85817,0.63304 -1.66955,0.76928 -2.45904,1.49566 -3.07526,2.83083 -1.25113,2.71084 0.008,5.5806 2.89646,6.5996 0.62706,0.22124 2.17332,0.59544 3.43597,0.83147 1.26265,0.23603 2.50383,0.53982 2.75849,0.67541 0.73202,0.38973 0.55963,1.18242 -0.33848,1.55443 -1.52541,0.63184 -3.84068,0.0743 -7.45226,-1.79472 -0.17252,-0.0893 -0.768,0.76312 -1.94149,2.78019 -0.48999,0.84228 -0.48931,0.86321 0.0202,1.2485 0.89539,0.67713 2.74888,1.47399 4.30775,1.85209 2.84707,0.69056 6.23342,0.4015 8.38088,-0.71572 2.47686,-1.28859 3.4638,-4.37582 2.17661,-6.80992 -0.79596,-1.50519 -2.55665,-2.48403 -5.4839,-3.04891 -4.11062,-0.79325 -4.73778,-1.20102 -3.29851,-2.14406 0.93883,-0.61515 3.23877,-0.3395 5.17488,0.62012 l 1.51412,0.75034 0.98857,-1.83089 0.98909,-1.8309 -0.63356,-0.48679 c -1.38161,-1.06201 -4.08916,-1.68726 -6.56135,-1.71411 z M 165.6918,237.3715 v 8.59896 8.59896 h 2.77813 2.77812 v -8.59896 -8.59896 h -2.77812 z m 117.21042,0 v 8.59896 8.59896 h 2.77812 2.77813 v -8.59896 -8.59896 h -2.77813 z m -51.06458,5.2e-4 v 6.30194 c 0,7.02424 0.22031,8.39505 1.55184,9.67073 0.42358,0.40581 1.23003,0.90186 1.79214,1.10225 2.17452,0.7752 5.46866,0.21867 7.30549,-1.23403 l 0.99219,-0.78496 v 1.07073 1.07125 h 2.77813 2.77812 v -8.59895 -8.59896 h -2.77812 -2.77813 v 5.66684 5.66683 l -0.99219,0.61702 c -0.71592,0.44512 -1.38516,0.61702 -2.40398,0.61702 -1.21902,0 -1.49923,-0.10168 -2.05052,-0.74259 -0.63155,-0.73365 -0.63872,-0.8074 -0.63872,-6.28386 v -5.54126 h -2.77813 z m 84.8713,4.23281 c 1.98312,0 3.49953,0.91012 3.49953,2.09962 0,0.18518 -1.18148,0.28163 -3.43959,0.28163 -3.55581,0 -3.86059,-0.10511 -3.10006,-1.07021 0.71706,-0.90997 1.64664,-1.31104 3.04012,-1.31104 z m -96.86747,0.34314 c 0.69547,-0.0329 1.39566,0.0939 1.942,0.38809 1.06029,0.57095 2.11667,2.38525 2.11667,3.63492 0,1.25637 -1.05619,3.06542 -2.11254,3.61838 -1.91252,1.00116 -3.98275,0.32382 -4.96507,-1.62419 -0.32742,-0.6493 -0.59211,-1.54227 -0.58911,-1.98438 0.008,-1.13934 0.88586,-2.93131 1.6955,-3.4618 0.52657,-0.34502 1.21707,-0.53808 1.91255,-0.57102 z" />
      </g>
    </g>
  </g>
</svg>
